<svg aria-hidden="true" style="position: absolute; width: 0; height: 0; overflow: hidden;" version="1.1" xmlns="http://www.w3.org/2000/svg" xmlns:xlink="http://www.w3.org/1999/xlink">
<defs>
<symbol id="icon-ice-cream-1" viewBox="0 0 32 32">
<path fill="#45413c" style="fill: var(--color1, #45413c)" opacity="0.15" d="M25.667 30.2c0 0.552-4.328 1-9.667 1s-9.667-0.448-9.667-1c0-0.552 4.328-1 9.667-1s9.667 0.448 9.667 1z"></path>
<path fill="#fffef2" style="fill: var(--color2, #fffef2)" d="M23.933 12.533c0.333-0.467 0.467-1.067 0.4-1.733-0.133-1.467-1.4-2.533-2.867-2.533h-0.667c0.6-0.467 1-1.2 1-2 0-1.4-1.133-2.533-2.533-2.533-1.333 0-5.4 0.467-4.6-2.267 0.133-0.4-0.2-0.733-0.6-0.667-1.867 0.467-3.933 2.4-3.933 5.467 0 0.8 0.4 1.533 1 2h-0.667c-1.467 0-2.733 1.067-2.867 2.533-0.067 0.6 0.133 1.2 0.4 1.733-2.067 0.6-3.533 2.6-3.467 4.867 0.133 2.6 2.4 4.533 5 4.533h12.8c2.6 0 4.867-2 5-4.533 0.133-2.333-1.333-4.267-3.4-4.867z"></path>
<path fill="#fff" style="fill: var(--color3, #fff)" d="M7.4 18.8c-0.133-2.267 1.4-4.267 3.467-4.867-0.333-0.467-0.467-1.067-0.4-1.733 0.133-1.467 1.4-2.533 2.867-2.533h0.667c-0.6-0.467-1-1.2-1-2 0-2.067 0.933-3.6 2.067-4.533-0.4-0.333-0.6-0.867-0.4-1.667 0.133-0.4-0.2-0.733-0.6-0.667-1.867 0.467-3.933 2.4-3.933 5.467 0 0.8 0.4 1.533 1 2h-0.667c-1.467 0-2.733 1.067-2.867 2.533-0.067 0.6 0.133 1.2 0.4 1.733-2.067 0.6-3.533 2.6-3.467 4.867 0.133 2.333 1.933 4.133 4.2 4.467-0.733-0.8-1.267-1.867-1.333-3.067z"></path>
<path fill="none" stroke="#45413c" style="stroke: var(--color1, #45413c)" stroke-linejoin="round" stroke-linecap="round" stroke-miterlimit="10" stroke-width="0.6667" d="M23.933 12.533c0.333-0.467 0.467-1.067 0.4-1.733-0.133-1.467-1.4-2.533-2.867-2.533h-0.667c0.6-0.467 1-1.2 1-2 0-1.4-1.133-2.533-2.533-2.533-1.333 0-5.4 0.467-4.6-2.267 0.133-0.4-0.2-0.733-0.6-0.667-1.867 0.467-3.933 2.4-3.933 5.467 0 0.8 0.4 1.533 1 2h-0.667c-1.467 0-2.733 1.067-2.867 2.533-0.067 0.6 0.133 1.2 0.4 1.733-2.067 0.6-3.533 2.6-3.467 4.867 0.133 2.6 2.4 4.533 5 4.533h12.8c2.6 0 4.867-2 5-4.533 0.133-2.333-1.333-4.267-3.4-4.867z"></path>
<path fill="#fff48c" style="fill: var(--color4, #fff48c)" d="M12.4 14.133c0 0.295-0.328 0.533-0.733 0.533s-0.733-0.239-0.733-0.533c0-0.295 0.328-0.533 0.733-0.533s0.733 0.239 0.733 0.533z"></path>
<path fill="#ffb0ca" style="fill: var(--color5, #ffb0ca); stroke: var(--color1, #45413c)" stroke="#45413c" stroke-linejoin="round" stroke-linecap="round" stroke-miterlimit="10" stroke-width="0.6667" d="M17.933 15.333c0.333 0 0.6 0.333 0.467 0.6-0.267 1.067-1.267 1.867-2.467 1.867s-2.2-0.8-2.467-1.867c-0.067-0.333 0.133-0.6 0.467-0.6h4z"></path>
<path fill="#ff87af" style="fill: var(--color6, #ff87af); stroke: var(--color1, #45413c)" stroke="#45413c" stroke-linejoin="round" stroke-linecap="round" stroke-miterlimit="10" stroke-width="0.6667" d="M16 17.867c0.8 0 1.533-0.4 2-1-0.533-0.333-1.2-0.533-2-0.533s-1.467 0.2-2 0.533c0.467 0.667 1.2 1 2 1z"></path>
<path fill="none" stroke="#45413c" style="stroke: var(--color1, #45413c)" stroke-linejoin="round" stroke-linecap="round" stroke-miterlimit="10" stroke-width="0.6667" d="M11.467 13.067c0-0.4 0.333-0.733 0.733-0.733s0.733 0.333 0.733 0.733"></path>
<path fill="#fff48c" style="fill: var(--color4, #fff48c)" d="M21.067 14.133c0 0.295-0.328 0.533-0.733 0.533s-0.733-0.239-0.733-0.533c0-0.295 0.328-0.533 0.733-0.533s0.733 0.239 0.733 0.533z"></path>
<path fill="none" stroke="#45413c" style="stroke: var(--color1, #45413c)" stroke-linejoin="round" stroke-linecap="round" stroke-miterlimit="10" stroke-width="0.6667" d="M20.533 13.067c0-0.4-0.333-0.733-0.733-0.733s-0.733 0.333-0.733 0.733"></path>
<path fill="#ff6196" style="fill: var(--color7, #ff6196)" d="M26.4 22.933h-20.8c-0.267 0-0.533-0.2-0.533-0.533v-2c0-0.267 0.2-0.533 0.533-0.533h20.733c0.267 0 0.533 0.2 0.533 0.533v2c0 0.333-0.2 0.533-0.467 0.533z"></path>
<path fill="#ff87af" style="fill: var(--color6, #ff87af)" d="M26.867 21.2h-21.733v-0.733c0-0.267 0.2-0.533 0.533-0.533h20.733c0.267 0 0.533 0.2 0.533 0.533v0.733z"></path>
<path fill="none" stroke="#45413c" style="stroke: var(--color1, #45413c)" stroke-linejoin="round" stroke-linecap="round" stroke-miterlimit="10" stroke-width="0.6667" d="M26.4 22.933h-20.8c-0.267 0-0.533-0.2-0.533-0.533v-2c0-0.267 0.2-0.533 0.533-0.533h20.733c0.267 0 0.533 0.2 0.533 0.533v2c0 0.333-0.2 0.533-0.467 0.533z"></path>
<path fill="#ff87af" style="fill: var(--color6, #ff87af)" d="M23.6 30.067h-15.2c-1 0-1.867-0.733-2-1.733l-0.733-5.333h20.733l-0.733 5.333c-0.2 0.933-1.067 1.733-2.067 1.733z"></path>
<path fill="#ff6196" style="fill: var(--color7, #ff6196)" d="M26.2 24.2l0.2-1.267h-20.8l0.2 1.267z"></path>
<path fill="none" stroke="#45413c" style="stroke: var(--color1, #45413c)" stroke-linejoin="round" stroke-linecap="round" stroke-miterlimit="10" stroke-width="0.6667" d="M23.6 30.067h-15.2c-1 0-1.867-0.733-2-1.733l-0.733-5.333h20.733l-0.733 5.333c-0.2 0.933-1.067 1.733-2.067 1.733z"></path>
<path fill="none" stroke="#45413c" style="stroke: var(--color1, #45413c)" stroke-linejoin="round" stroke-linecap="round" stroke-miterlimit="10" stroke-width="0.6667" d="M25.333 16.867v0.733c0 0.4-0.333 0.733-0.733 0.733s-0.733-0.333-0.733-0.733v-1.8"></path>
<path fill="none" stroke="#45413c" style="stroke: var(--color1, #45413c)" stroke-linejoin="round" stroke-linecap="round" stroke-miterlimit="10" stroke-width="0.6667" d="M18.8 6.733v1.267c0 0.4-0.333 0.733-0.733 0.733s-0.733-0.333-0.733-0.733v-0.533"></path>
<path fill="#fffef2" style="fill: var(--color2, #fffef2)" d="M8.667 19.4v1.267c0 0.4-0.333 0.733-0.733 0.733s-0.733-0.333-0.733-0.733v-1.267h1.467z"></path>
<path fill="none" stroke="#45413c" style="stroke: var(--color1, #45413c)" stroke-linejoin="round" stroke-linecap="round" stroke-miterlimit="10" stroke-width="0.6667" d="M8.667 19.933v0.733c0 0.4-0.333 0.733-0.733 0.733s-0.733-0.333-0.733-0.733v-1.267"></path>
</symbol>
<symbol id="icon-ice-cream-2" viewBox="0 0 32 32">
<path fill="#45413c" style="fill: var(--color1, #45413c)" opacity="0.15" d="M22.333 29.533c0 0.552-2.836 1-6.333 1s-6.333-0.448-6.333-1c0-0.552 2.836-1 6.333-1s6.333 0.448 6.333 1z"></path>
<path fill="#f0d5a8" style="fill: var(--color8, #f0d5a8)" d="M20.667 20.467h-9.333c-0.267 0-0.533-0.2-0.6-0.467l-0.6-2.4c-0.067-0.4 0.2-0.733 0.6-0.733h10.533c0.4 0 0.667 0.4 0.6 0.733l-0.6 2.4c-0.067 0.267-0.333 0.467-0.6 0.467z"></path>
<path fill="#f7e5c6" style="fill: var(--color9, #f7e5c6)" d="M10.333 18.333h11.333l0.2-0.733c0.067-0.4-0.2-0.733-0.6-0.733h-10.533c-0.4 0-0.667 0.4-0.6 0.733l0.2 0.733z"></path>
<path fill="none" stroke="#45413c" style="stroke: var(--color1, #45413c)" stroke-linejoin="round" stroke-linecap="round" stroke-miterlimit="10" stroke-width="0.6667" d="M20.667 20.467h-9.333c-0.267 0-0.533-0.2-0.6-0.467l-0.6-2.4c-0.067-0.4 0.2-0.733 0.6-0.733h10.533c0.4 0 0.667 0.4 0.6 0.733l-0.6 2.4c-0.067 0.267-0.333 0.467-0.6 0.467z"></path>
<path fill="#f0d5a8" style="fill: var(--color8, #f0d5a8)" d="M17.467 29.533h-2.867c-0.933 0-1.667-0.667-1.8-1.6l-1-7.467h8.467l-1 7.467c-0.133 0.933-0.933 1.6-1.8 1.6z"></path>
<path fill="#debb7e" style="fill: var(--color10, #debb7e)" d="M20 22l0.267-1.533h-8.533l0.267 1.533z"></path>
<path fill="none" stroke="#45413c" style="stroke: var(--color1, #45413c)" stroke-linejoin="round" stroke-linecap="round" stroke-miterlimit="10" stroke-width="0.6667" d="M17.467 29.533h-2.867c-0.933 0-1.667-0.667-1.8-1.6l-1-7.467h8.467l-1 7.467c-0.133 0.933-0.933 1.6-1.8 1.6z"></path>
<path fill="#fffef2" style="fill: var(--color2, #fffef2)" d="M22 10.4c0.2-0.333 0.333-0.733 0.333-1.133 0-1.2-0.933-2.133-2.133-2.133h-0.8c0.267-0.333 0.467-0.733 0.467-1.2 0-1-0.8-1.8-1.8-1.8h-0.933c-1.333 0-2.267-1.467-1.6-2.733-2 0.2-3.6 1.867-3.6 3.933 0 0.533 0.133 1.4 0.333 1.8h-0.6c-1.2 0-2.133 0.933-2.133 2.133 0 0.4 0.133 0.8 0.333 1.133-1.267 0.467-2.133 1.667-2.133 3.133 0 1.867 1.467 3.333 3.333 3.333h9.667c1.867 0 3.333-1.467 3.333-3.333 0.133-1.467-0.8-2.667-2.067-3.133z"></path>
<path fill="#fff" style="fill: var(--color3, #fff)" d="M9.667 14.733c0-1.4 0.867-2.6 2.133-3.133-0.2-0.333-0.333-0.733-0.333-1.133 0-1.2 0.933-2.133 2.133-2.133h0.6c-0.2-0.467-0.333-1.267-0.333-1.8 0-1.4 0.733-2.6 1.8-3.267-0.333-0.533-0.4-1.2 0-1.867-2 0.2-3.6 1.867-3.6 3.933 0 0.533 0.133 1.4 0.333 1.8h-0.6c-1.2 0-2.133 0.933-2.133 2.133 0 0.4 0.133 0.8 0.333 1.133-1.267 0.467-2.133 1.667-2.133 3.133 0 1.533 1.067 2.867 2.467 3.2-0.4-0.533-0.667-1.267-0.667-2z"></path>
<path fill="none" stroke="#45413c" style="stroke: var(--color1, #45413c)" stroke-linejoin="round" stroke-linecap="round" stroke-miterlimit="10" stroke-width="0.6667" d="M22 10.4c0.2-0.333 0.333-0.733 0.333-1.133 0-1.2-0.933-2.133-2.133-2.133h-0.8c0.267-0.333 0.467-0.733 0.467-1.2 0-1-0.8-1.8-1.8-1.8h-0.933c-1.333 0-2.267-1.467-1.6-2.733-2 0.2-3.6 1.867-3.6 3.933 0 0.533 0.133 1.4 0.333 1.8h-0.6c-1.2 0-2.133 0.933-2.133 2.133 0 0.4 0.133 0.8 0.333 1.133-1.267 0.467-2.133 1.667-2.133 3.133 0 1.867 1.467 3.333 3.333 3.333h9.667c1.867 0 3.333-1.467 3.333-3.333 0.133-1.467-0.8-2.667-2.067-3.133z"></path>
<path fill="none" stroke="#45413c" style="stroke: var(--color1, #45413c)" stroke-linejoin="round" stroke-linecap="round" stroke-miterlimit="10" stroke-width="0.6667" d="M21.133 12.6v0.933c0 0.533-0.4 0.933-0.933 0.933s-0.867-0.467-0.867-0.933v-2.133"></path>
<path fill="none" stroke="#45413c" style="stroke: var(--color1, #45413c)" stroke-linejoin="round" stroke-linecap="round" stroke-miterlimit="10" stroke-width="0.6667" d="M15.667 9v1.533c0 0.533-0.4 0.933-0.933 0.933s-0.933-0.4-0.933-0.933v-0.6"></path>
<path fill="#fffef2" style="fill: var(--color2, #fffef2)" d="M13.267 16.2v1.533c0 0.533-0.4 0.933-0.933 0.933s-0.933-0.4-0.933-0.933v-1.533h1.867z"></path>
<path fill="none" stroke="#45413c" style="stroke: var(--color1, #45413c)" stroke-linejoin="round" stroke-linecap="round" stroke-miterlimit="10" stroke-width="0.6667" d="M13.267 16.867v0.933c0 0.533-0.4 0.933-0.933 0.933s-0.933-0.4-0.933-0.933v-1.533"></path>
</symbol>
<symbol id="icon-ice-cream-3" viewBox="0 0 32 32">
<path fill="#fff48c" style="fill: var(--color4, #fff48c)" d="M12.48 5.787c-1.092-0.245-2.044-0.739-2.828-1.42l0.008 0.007c-0.669-0.63-1.262-1.326-1.772-2.083l-0.028-0.043c-0.13-0.182-0.34-0.3-0.578-0.3-0.302 0-0.559 0.189-0.661 0.455l-0.002 0.005c-0.339 0.845-0.536 1.824-0.536 2.85 0 0.309 0.018 0.614 0.053 0.913l-0.003-0.036c0.301 1.426 1.056 2.642 2.104 3.519l0.010 0.008z"></path>
<path fill="#fffacf" style="fill: var(--color11, #fffacf)" d="M6.187 6.42c0.101-0.608 0.252-1.148 0.453-1.663l-0.019 0.056c0.101-0.27 0.357-0.459 0.657-0.459 0.242 0 0.456 0.123 0.581 0.31l0.002 0.003c0.541 0.799 1.133 1.496 1.794 2.121l0.006 0.005c0.285 0.241 0.604 0.462 0.943 0.651l0.030 0.016 1.847-1.687c-1.092-0.245-2.044-0.739-2.828-1.42l0.008 0.007c-0.667-0.631-1.259-1.327-1.772-2.083l-0.028-0.044c-0.13-0.182-0.34-0.3-0.578-0.3-0.302 0-0.559 0.189-0.661 0.455l-0.002 0.005c-0.34 0.846-0.537 1.826-0.537 2.853 0 0.313 0.018 0.621 0.054 0.924l-0.003-0.037c0.013 0.1 0.033 0.193 0.053 0.287z"></path>
<path fill="none" stroke="#45413c" style="stroke: var(--color1, #45413c)" stroke-linejoin="round" stroke-linecap="round" stroke-miterlimit="4" stroke-width="0.6667" d="M12.48 5.787c-1.092-0.245-2.044-0.739-2.828-1.42l0.008 0.007c-0.669-0.63-1.262-1.326-1.772-2.083l-0.028-0.043c-0.13-0.182-0.34-0.3-0.578-0.3-0.302 0-0.559 0.189-0.661 0.455l-0.002 0.005c-0.339 0.845-0.536 1.824-0.536 2.85 0 0.309 0.018 0.614 0.053 0.913l-0.003-0.036c0.301 1.426 1.056 2.642 2.104 3.519l0.010 0.008z"></path>
<path fill="#fff48c" style="fill: var(--color4, #fff48c)" d="M19.52 5.787c1.092-0.245 2.044-0.739 2.828-1.42l-0.008 0.007c0.669-0.63 1.262-1.326 1.772-2.083l0.028-0.043c0.13-0.182 0.34-0.3 0.578-0.3 0.302 0 0.559 0.189 0.661 0.455l0.002 0.005c0.339 0.845 0.536 1.824 0.536 2.85 0 0.309-0.018 0.614-0.053 0.913l0.003-0.036c-0.301 1.426-1.056 2.642-2.104 3.519l-0.010 0.008z"></path>
<path fill="#fffacf" style="fill: var(--color11, #fffacf)" d="M25.813 6.42c-0.101-0.608-0.252-1.148-0.453-1.663l0.019 0.056c-0.101-0.27-0.357-0.459-0.657-0.459-0.242 0-0.456 0.123-0.581 0.31l-0.002 0.003c-0.541 0.799-1.133 1.496-1.794 2.121l-0.006 0.005c-0.285 0.241-0.604 0.462-0.943 0.651l-0.030 0.016-1.847-1.673c1.092-0.245 2.044-0.739 2.828-1.42l-0.008 0.007c0.667-0.631 1.259-1.327 1.772-2.083l0.028-0.044c0.13-0.182 0.34-0.3 0.578-0.3 0.302 0 0.559 0.189 0.661 0.455l0.002 0.005c0.339 0.845 0.536 1.824 0.536 2.85 0 0.309-0.018 0.614-0.053 0.913l0.003-0.036c-0.013 0.1-0.033 0.193-0.053 0.287z"></path>
<path fill="none" stroke="#45413c" style="stroke: var(--color1, #45413c)" stroke-linejoin="round" stroke-linecap="round" stroke-miterlimit="4" stroke-width="0.6667" d="M19.52 5.787c1.092-0.245 2.044-0.739 2.828-1.42l-0.008 0.007c0.669-0.63 1.262-1.326 1.772-2.083l0.028-0.043c0.13-0.182 0.34-0.3 0.578-0.3 0.302 0 0.559 0.189 0.661 0.455l0.002 0.005c0.339 0.845 0.536 1.824 0.536 2.85 0 0.309-0.018 0.614-0.053 0.913l0.003-0.036c-0.301 1.426-1.056 2.642-2.104 3.519l-0.010 0.008z"></path>
<path fill="#f0f0f0" style="fill: var(--color12, #f0f0f0)" d="M8.5 8.227s-4.667 0.627-6.667 6c-1.293 3.407 6.667 1.76 6.667 1.76z"></path>
<path fill="#fff" style="fill: var(--color3, #fff)" d="M1.807 14.22c-0.1 0.175-0.159 0.385-0.159 0.609 0 0.392 0.181 0.741 0.463 0.97l0.002 0.002c1.148-2.675 3.485-4.647 6.327-5.269l0.059-0.011v-2.293s-4.66 0.627-6.693 5.993z"></path>
<path fill="none" stroke="#45413c" style="stroke: var(--color1, #45413c)" stroke-linejoin="round" stroke-linecap="round" stroke-miterlimit="4" stroke-width="0.6667" d="M8.5 8.227s-4.667 0.627-6.667 6c-1.293 3.407 6.667 1.76 6.667 1.76z"></path>
<path fill="#f0f0f0" style="fill: var(--color12, #f0f0f0)" d="M23.5 8.227s4.667 0.627 6.667 6c1.293 3.407-6.667 1.76-6.667 1.76z"></path>
<path fill="#fff" style="fill: var(--color3, #fff)" d="M30.193 14.22c0.1 0.175 0.159 0.385 0.159 0.609 0 0.392-0.181 0.741-0.463 0.97l-0.002 0.002c-1.148-2.675-3.485-4.647-6.327-5.269l-0.059-0.011v-2.293s4.66 0.627 6.693 5.993z"></path>
<path fill="none" stroke="#45413c" style="stroke: var(--color1, #45413c)" stroke-linejoin="round" stroke-linecap="round" stroke-miterlimit="4" stroke-width="0.6667" d="M23.5 8.227s4.667 0.627 6.667 6c1.293 3.407-6.667 1.76-6.667 1.76z"></path>
<path fill="#45413c" style="fill: var(--color1, #45413c)" opacity="0.15" d="M24.107 30.273c0 0.585-3.629 1.060-8.107 1.060s-8.107-0.475-8.107-1.060c0-0.585 3.629-1.060 8.107-1.060s8.107 0.475 8.107 1.060z"></path>
<path fill="#f0f0f0" style="fill: var(--color12, #f0f0f0)" d="M13.553 5.433h4.9c3.513 0 6.36 2.847 6.36 6.36v0 9.847h-17.62v-9.847c0-3.513 2.847-6.36 6.36-6.36v0z"></path>
<path fill="#fff" style="fill: var(--color3, #fff)" d="M18.447 5.433h-4.893c-3.513 0-6.36 2.847-6.36 6.36v0 2.553c0.008-3.507 2.852-6.347 6.36-6.347 0 0 0 0 0 0h4.893c3.513 0 6.36 2.847 6.36 6.36v0-2.567c0-3.513-2.847-6.36-6.36-6.36v0z"></path>
<path fill="none" stroke="#45413c" style="stroke: var(--color1, #45413c)" stroke-linejoin="round" stroke-linecap="round" stroke-miterlimit="4" stroke-width="0.6667" d="M13.553 5.433h4.9c3.513 0 6.36 2.847 6.36 6.36v0 9.847h-17.62v-9.847c0-3.513 2.847-6.36 6.36-6.36v0z"></path>
<path fill="#fcd" style="fill: var(--color13, #fcd)" d="M26.22 21.64c0 3.697-4.576 6.693-10.22 6.693s-10.22-2.997-10.22-6.693c0-3.697 4.576-6.693 10.22-6.693s10.22 2.997 10.22 6.693z"></path>
<path fill="#ffe5ee" style="fill: var(--color14, #ffe5ee)" d="M16 17.413c7.773 0 9.753 2.267 10.14 5.333 0.048-0.32 0.077-0.692 0.080-1.070l0-0.004c0-3.7-1.293-6.667-10.22-6.667s-10.22 2.993-10.22 6.667c0.003 0.382 0.032 0.753 0.085 1.117l-0.005-0.044c0.387-3.067 2.367-5.333 10.14-5.333z"></path>
<path fill="none" stroke="#45413c" style="stroke: var(--color1, #45413c)" stroke-linejoin="round" stroke-linecap="round" stroke-miterlimit="4" stroke-width="0.6667" d="M26.22 21.64c0 3.697-4.576 6.693-10.22 6.693s-10.22-2.997-10.22-6.693c0-3.697 4.576-6.693 10.22-6.693s10.22 2.997 10.22 6.693z"></path>
<path fill="#ff87af" style="fill: var(--color6, #ff87af); stroke: var(--color1, #45413c)" stroke="#45413c" stroke-linejoin="round" stroke-linecap="round" stroke-miterlimit="4" stroke-width="0.6667" d="M12.833 22.347c0 0.585-0.475 1.060-1.060 1.060s-1.060-0.475-1.060-1.060c0-0.585 0.475-1.060 1.060-1.060s1.060 0.475 1.060 1.060z"></path>
<path fill="#ff87af" style="fill: var(--color6, #ff87af); stroke: var(--color1, #45413c)" stroke="#45413c" stroke-linejoin="round" stroke-linecap="round" stroke-miterlimit="4" stroke-width="0.6667" d="M21.287 22.347c0 0.585-0.475 1.060-1.060 1.060s-1.060-0.475-1.060-1.060c0-0.585 0.475-1.060 1.060-1.060s1.060 0.475 1.060 1.060z"></path>
<path fill="#45413c" style="fill: var(--color1, #45413c); stroke: var(--color1, #45413c)" stroke="#45413c" stroke-linejoin="round" stroke-linecap="round" stroke-miterlimit="4" stroke-width="0.6667" d="M21.433 12.373c0 0.527-0.427 0.953-0.953 0.953s-0.953-0.427-0.953-0.953c0-0.527 0.427-0.953 0.953-0.953s0.953 0.427 0.953 0.953z"></path>
<path fill="#45413c" style="fill: var(--color1, #45413c); stroke: var(--color1, #45413c)" stroke="#45413c" stroke-linejoin="round" stroke-linecap="round" stroke-miterlimit="4" stroke-width="0.6667" d="M12.473 12.373c0 0.527-0.427 0.953-0.953 0.953s-0.953-0.427-0.953-0.953c0-0.527 0.427-0.953 0.953-0.953s0.953 0.427 0.953 0.953z"></path>
<path fill="#fcd" style="fill: var(--color13, #fcd)" d="M24.107 14.24c0 0.367-0.473 0.667-1.060 0.667s-1.060-0.3-1.060-0.667 0.473-0.667 1.060-0.667 1.060 0.3 1.060 0.667z"></path>
<path fill="#fcd" style="fill: var(--color13, #fcd)" d="M10 14.24c0 0.367-0.473 0.667-1.060 0.667s-1.060-0.3-1.060-0.667 0.473-0.667 1.060-0.667 1.060 0.3 1.060 0.667z"></path>
</symbol>
<symbol id="icon-ice-cream-4" viewBox="0 0 28 32">
<path fill="#f4ede9" style="fill: var(--color15, #f4ede9)" d="M8.819 2.743v1.657c0 2.209 2.762 8.839 2.762 10.495v14.915c0 0.915-0.742 1.657-1.658 1.657h-7.733c-0.915 0-1.656-0.742-1.656-1.657v-14.915c0-1.657 2.76-8.286 2.76-10.495v-1.657z"></path>
<path fill="#fbf8f6" style="fill: var(--color16, #fbf8f6)" d="M8.819 6.932c0 0 2.762 6.307 2.762 7.964v14.915c0 0.915-0.742 1.657-1.658 1.657h-7.733c-0.915 0-1.656-0.742-1.656-1.657v-14.915c0-1.657 2.76-7.964 2.76-7.964z"></path>
<path fill="#e3b08d" style="fill: var(--color17, #e3b08d)" d="M0.534 24.838v-8.838h11.047z"></path>
<path fill="#e3b08d" style="fill: var(--color17, #e3b08d)" d="M11.581 16v8.838h-11.047z"></path>
<path fill="#e6dbd5" style="fill: var(--color18, #e6dbd5)" d="M9.923 32h-7.733c-1.208 0-2.19-0.982-2.19-2.19v-14.915c0-0.854 0.583-2.657 1.258-4.745 0.705-2.18 1.503-4.65 1.503-5.75v-1.657h1.067v1.657c0 1.268-0.791 3.714-1.555 6.078-0.594 1.835-1.206 3.732-1.206 4.417v14.915c0 0.619 0.503 1.124 1.123 1.124h7.733c0.62 0 1.124-0.505 1.124-1.124v-14.915c0-0.685-0.613-2.583-1.206-4.417-0.765-2.365-1.555-4.811-1.555-6.078v-1.657h1.066v1.657c0 1.1 0.799 3.57 1.503 5.75 0.676 2.089 1.258 3.892 1.258 4.745v14.915c0 1.208-0.983 2.19-2.191 2.19v0z"></path>
<path fill="#e6dbd5" style="fill: var(--color18, #e6dbd5)" d="M11.581 16.533h-11.047v-1.066h11.047v1.066z"></path>
<path fill="#e6dbd5" style="fill: var(--color18, #e6dbd5)" d="M11.581 25.371h-11.047v-1.066h11.047v1.066z"></path>
<path fill="#bcb3be" style="fill: var(--color19, #bcb3be)" d="M3.294 0.533h5.525c0.609 0 1.104 0.494 1.104 1.105s-0.495 1.105-1.104 1.105h-5.525c-0.611 0-1.104-0.495-1.104-1.105s0.494-1.105 1.104-1.105z"></path>
<path fill="#8c7c8e" style="fill: var(--color20, #8c7c8e)" d="M8.819 3.276h-5.525c-0.903 0-1.638-0.735-1.638-1.638s0.735-1.638 1.638-1.638h5.525c0.903 0 1.637 0.734 1.637 1.638s-0.734 1.638-1.637 1.638v0zM3.294 1.066c-0.315 0-0.571 0.256-0.571 0.572s0.256 0.572 0.571 0.572h5.525c0.314 0 0.571-0.256 0.571-0.572s-0.257-0.572-0.571-0.572h-5.525z"></path>
<path fill="#a37458" style="fill: var(--color21, #a37458)" d="M9.279 19.593h-6.444v-1.066h6.444v1.066z"></path>
<path fill="#a37458" style="fill: var(--color21, #a37458)" d="M5.412 21.85h-2.577v-1.067h2.577v1.067z"></path>
<path fill="#a37458" style="fill: var(--color21, #a37458)" d="M9.279 21.85h-1.934v-1.067h1.934v1.067z"></path>
<path fill="#fbf8f6" style="fill: var(--color16, #fbf8f6)" d="M17.234 17.431c0 0 0.036 1.225-1.602 2.611-4.178 3.537-2.644 11.384 2.282 11.424h4.984c4.925-0.040 6.46-7.887 2.282-11.424-1.639-1.387-1.604-2.611-1.604-2.611z"></path>
<path fill="#f4ede9" style="fill: var(--color15, #f4ede9)" d="M17.234 17.431l-1.602 2.611h9.548l-1.604-2.611z"></path>
<path fill="#e6dbd5" style="fill: var(--color18, #e6dbd5)" d="M20.463 32h-2.548c-2.153-0.018-3.933-1.402-4.766-3.703-0.914-2.525-0.634-6.314 2.139-8.662 1.389-1.175 1.413-2.156 1.413-2.197 0.002-0.29 0.237-0.531 0.528-0.535 0.002 0 0.004 0 0.006 0 0.288 0 0.524 0.224 0.533 0.512 0.004 0.152-0.008 1.525-1.792 3.034-2.278 1.929-2.643 5.225-1.825 7.484 0.684 1.893 2.058 2.986 3.768 3h4.979c1.704-0.014 3.078-1.107 3.762-3 0.818-2.258 0.454-5.555-1.825-7.484-1.784-1.508-1.797-2.881-1.793-3.033 0.008-0.294 0.254-0.537 0.548-0.518 0.294 0.008 0.527 0.254 0.518 0.548 0.001 0.031 0.025 1.012 1.415 2.188 2.774 2.349 3.053 6.137 2.139 8.662-0.833 2.301-2.613 3.686-4.762 3.703h-2.439z"></path>
<path fill="#bcb3be" style="fill: var(--color19, #bcb3be)" d="M19.708 17.431h3.868c0.572 0 1.038-0.467 1.038-1.038v0c0-0.571-0.466-1.038-1.038-1.038h-6.228c-0.572 0-1.038 0.467-1.038 1.038v0c0 0.571 0.466 1.038 1.038 1.038h2.467z"></path>
<path fill="#8c7c8e" style="fill: var(--color20, #8c7c8e)" d="M23.576 17.965h-6.228c-0.867 0-1.571-0.705-1.571-1.572s0.704-1.571 1.571-1.571h6.228c0.867 0 1.572 0.704 1.572 1.571s-0.705 1.572-1.572 1.572v0zM19.708 16.898h3.868c0.278 0 0.505-0.226 0.505-0.505s-0.227-0.505-0.505-0.505h-6.228c-0.278 0-0.505 0.227-0.505 0.505s0.227 0.505 0.505 0.505h2.359z"></path>
<path fill="#e3b08d" style="fill: var(--color17, #e3b08d)" d="M22.036 22.124h4.769c0.992 1.975 1.024 4.361 0.266 6.229h-5.035c-0.572 0-1.038-0.467-1.038-1.038v-4.152c0-0.57 0.466-1.038 1.038-1.038z"></path>
<path fill="#e6dbd5" style="fill: var(--color18, #e6dbd5)" d="M27.43 28.886h-5.394c-0.867 0-1.571-0.705-1.571-1.572v-4.152c0-0.867 0.704-1.572 1.571-1.572h5.098l0.148 0.294c1.020 2.031 1.129 4.587 0.284 6.669l-0.135 0.333zM22.036 22.658c-0.278 0-0.505 0.227-0.505 0.505v4.152c0 0.278 0.227 0.505 0.505 0.505h4.665c0.56-1.638 0.473-3.559-0.234-5.161h-4.43z"></path>
</symbol>
<symbol id="icon-ice-cream-5" viewBox="0 0 32 32">
<path fill="#9ee3e5" style="fill: var(--color22, #9ee3e5)" d="M22.744 13.091h-0.063l-2.011-6.788h-9.519l-1.939 6.891c0 0 0-0.028 0 0v14.962c0 2.71 2.237 2.874 4.947 2.874h3.681c2.71 0 4.947-0.164 4.947-2.874v-14.962c0-0.028-0.044-0.103-0.044-0.103z"></path>
<path fill="#7dd1d1" style="fill: var(--color23, #7dd1d1)" d="M16.97 31.030h0.871c2.71 0 4.947-0.164 4.947-2.874v-14.962c0-0.028 0 0 0 0v0l-2.118-6.891h-9.519z"></path>
<path fill="#7dd1d1" style="fill: var(--color23, #7dd1d1)" d="M22.303 5.201c0 0.602-0.524 1.102-0.956 1.102h-10.694c-0.432 0-0.956-0.499-0.956-1.102v-3.216c0-0.603 0.524-1.015 0.956-1.015h10.694c0.431 0 0.956 0.413 0.956 1.015v3.216z"></path>
<path fill="#34b515" style="fill: var(--color24, #34b515)" d="M9.697 1.985c0-0.603 0.524-1.015 0.956-1.015h10.694c0.431 0 0.956 0.413 0.956 1.015v3.216c0 0.602-0.524 1.102-0.956 1.102z"></path>
<path fill="#2d9b0e" style="fill: var(--color25, #2d9b0e)" d="M20.843 14.663c-0.173 0.047-0.352 0.079-0.54 0.079-0.558 0-1.061-0.222-1.435-0.579-0.374 0.357-0.877 0.579-1.434 0.579s-1.061-0.222-1.435-0.579c-0.374 0.357-0.877 0.579-1.434 0.579s-1.061-0.222-1.435-0.579c-0.374 0.357-0.877 0.579-1.434 0.579-0.188 0-0.367-0.033-0.54-0.079l-0.013 1.733c0 0.020 0.008 0.039 0.008 0.059v10.796c-0.001 1.955 1.565 2.326 3.52 2.326h2.656c1.955 0 3.52-0.37 3.52-2.326v-10.795c0-0.020 0.008-0.039 0.008-0.059l-0.013-1.733z"></path>
<path fill="#fffef0" style="fill: var(--color26, #fffef0)" d="M20.856 16.396l-0.018-1.733c-0.173 0.047-0.349 0.079-0.537 0.079-0.558 0-1.060-0.222-1.434-0.579-0.374 0.357-0.876 0.579-1.433 0.579s-1.058-0.222-1.432-0.579c-0.002 0.001-0.003 0.002-0.003 0.004v15.408h1.328c1.955 0 3.52-0.37 3.52-2.326v-10.795c0-0.020 0.008-0.039 0.008-0.059z"></path>
<path fill="#f2f0da" style="fill: var(--color27, #f2f0da)" d="M10.182 3.879h11.636v0.485h-11.636v-0.485z"></path>
<path fill="#277f0a" style="fill: var(--color28, #277f0a)" d="M22.744 13.113h-0.041l0.042 0.026c0-0.009-0.001-0.017-0.001-0.026z"></path>
<path fill="#69bcba" style="fill: var(--color29, #69bcba)" d="M11.314 6.298l11.474 6.896-2.118-6.891h-9.34z"></path>
<path fill="#69bcba" style="fill: var(--color29, #69bcba)" d="M14.133 25.697h3.722l0.335-2.424h-4.392l0.335 2.424zM16.367 24.47l0.734-0.335v0.58l-0.734 0.321v-0.566zM14.887 24.134l0.735 0.335v0.566l-0.735-0.321v-0.58z"></path>
<path fill="#69bcba" style="fill: var(--color29, #69bcba)" d="M17.31 21.663c0 0.136-0.123 0.246-0.275 0.246s-0.275-0.11-0.275-0.246c0-0.136 0.123-0.246 0.275-0.246s0.275 0.11 0.275 0.246z"></path>
<path fill="#69bcba" style="fill: var(--color29, #69bcba)" d="M15.23 21.663c0 0.136-0.123 0.246-0.275 0.246s-0.275-0.11-0.275-0.246c0-0.136 0.123-0.246 0.275-0.246s0.275 0.11 0.275 0.246z"></path>
<path fill="#69bcba" style="fill: var(--color29, #69bcba)" d="M20.417 17.893l-2.27 0.307-0.173 1.28-0.425-0.139 0.053-0.987 0.265-0.179-0.345-0.511-0.511 0.344 0.201 0.298-0.301 0.826-0.911-0.298-0.912 0.298-0.301-0.826 0.201-0.298-0.511-0.344-0.345 0.511 0.266 0.179 0.052 0.987-0.425 0.139-0.173-1.28-2.27-0.307 0.307 2.27 1.215 0.25-0.296 2.86h6.383l-0.295-2.86 1.214-0.207 0.306-2.313zM12.049 18.359l1.481 0.2-1.281 1.281-0.2-1.481zM15.515 22.445l-1.658-0.168-0.342-1.648 0.634-0.162 0.013 0.002 0.010-0.005 1.343-0.338v2.318zM18.131 22.277l-1.647 0.168v-2.318l1.983 0.503-0.336 1.648zM19.751 19.84l-1.281-1.281 1.481-0.2-0.2 1.481z"></path>
<path fill="#69bcba" style="fill: var(--color29, #69bcba)" d="M14.747 26.667h2.507l0.078-0.485h-2.662z"></path>
</symbol>
<symbol id="icon-ice-cream-6" viewBox="0 0 32 32">
<path fill="#fcd770" style="fill: var(--color30, #fcd770)" d="M25.5 27v-7h-22v7h14z"></path>
<path fill="#e6e9ed" style="fill: var(--color31, #e6e9ed)" d="M9.5 22h8v5h-8v-5z"></path>
<path fill="#656d78" style="fill: var(--color32, #656d78)" d="M25.5 27c0 2.209-1.791 4-4 4s-4-1.791-4-4c0-2.209 1.791-4 4-4s4 1.791 4 4z"></path>
<path fill="#838f9b" style="fill: var(--color33, #838f9b)" d="M23.5 27c0 1.105-0.895 2-2 2s-2-0.895-2-2c0-1.105 0.895-2 2-2s2 0.895 2 2z"></path>
<path fill="#656d78" style="fill: var(--color32, #656d78)" d="M7 28c0 1.657-1.343 3-3 3s-3-1.343-3-3c0-1.657 1.343-3 3-3s3 1.343 3 3z"></path>
<path fill="#e6e9ed" style="fill: var(--color31, #e6e9ed)" d="M3.5 18h22v2h-22v-2z"></path>
<path fill="#838f9b" style="fill: var(--color33, #838f9b)" d="M5 28c0 0.552-0.448 1-1 1s-1-0.448-1-1c0-0.552 0.448-1 1-1s1 0.448 1 1z"></path>
<path fill="#aab2bd" style="fill: var(--color34, #aab2bd)" d="M25.5 20h1c0.552 0 1-0.448 1-1v-3h3c0.276 0 0.5-0.224 0.5-0.5v-1c0-0.276-0.224-0.5-0.5-0.5h-4c-0.552 0-1 0.447-1 1v5z"></path>
<path fill="#dfb28b" style="fill: var(--color35, #dfb28b)" d="M21.5 9h2v9h-2v-9z"></path>
<path fill="#dfb28b" style="fill: var(--color35, #dfb28b)" d="M4.5 9h2v9h-2v-9z"></path>
<path fill="#dfb28b" style="fill: var(--color35, #dfb28b)" d="M11.722 7h-7.722c-0.276 0-0.5 0.224-0.5 0.5v1c0 0.276 0.224 0.5 0.5 0.5h20c0.276 0 0.5-0.224 0.5-0.5v-1c0-0.276-0.224-0.5-0.5-0.5h-12.278z"></path>
<path fill="#ff826e" style="fill: var(--color36, #ff826e)" d="M23.5 7v0c-0.902-2.406-3.203-4-5.772-4h-7.456c-2.569 0-4.87 1.594-5.772 4v0h19z"></path>
<path fill="#fc6e51" style="fill: var(--color37, #fc6e51)" d="M9.5 5c0 0.739 0.408 1.379 1.005 1.725l0.123 0.275h6.745l0.122-0.275c0.598-0.346 1.005-0.986 1.005-1.725 0-0.748-0.417-1.393-1.026-1.736 0.012-0.087 0.026-0.173 0.026-0.264h-7c0 0.091 0.015 0.176 0.027 0.264-0.61 0.343-1.027 0.988-1.027 1.736z"></path>
<path fill="#cf9e76" style="fill: var(--color38, #cf9e76)" d="M16.278 7h-5.65l0.889 2h4.967l0.889-2z"></path>
<path fill="#f0d0b4" style="fill: var(--color39, #f0d0b4)" d="M16.5 6v0.5l-2 4.5h-1l-2-4.5v-0.5z"></path>
<path fill="#fcd770" style="fill: var(--color30, #fcd770)" d="M12.5 4c-0.553 0-1-0.447-1-1v0c0-0.553 0.447-1 1-1v0c0.613 0 1.173-0.347 1.447-0.894l0.053-0.105c0.613 0 1.173 0.347 1.447 0.895l0.053 0.106c0.552 0 1 0.448 1 1v0c0 0.552-0.448 1-1 1h-3z"></path>
<path fill="#ffc729" style="fill: var(--color40, #ffc729)" d="M14.5 4h2c0.552 0 1 0.447 1 1v0c0 0.553-0.448 1-1 1h-5c-0.553 0-1-0.447-1-1v0c0-0.553 0.447-1 1-1h3z"></path>
<path fill="#ffc729" style="fill: var(--color40, #ffc729)" d="M12.5 4c-0.553 0-1-0.447-1-1v0c0-0.553 0.447-1 1-1v0c0.613 0 1.173-0.347 1.447-0.894l0.053-0.105c0.613 0 1.173 0.347 1.447 0.895l0.053 0.106c0.552 0 1 0.448 1 1v0c0 0.552-0.448 1-1 1h-3z"></path>
<path fill="#b27946" style="fill: var(--color41, #b27946)" d="M8.5 16h4v2h-4v-2z"></path>
<path fill="#dfb28b" style="fill: var(--color35, #dfb28b)" d="M9.5 14h2v2h-2v-2z"></path>
<path fill="#b27946" style="fill: var(--color41, #b27946)" d="M15.5 16h4v2h-4v-2z"></path>
<path fill="#dfb28b" style="fill: var(--color35, #dfb28b)" d="M16.5 14h2v2h-2v-2z"></path>
<path fill="#cf9e76" style="fill: var(--color38, #cf9e76)" d="M21.5 9h2v1h-2v-1z"></path>
<path fill="#cf9e76" style="fill: var(--color38, #cf9e76)" d="M4.5 9h2v1h-2v-1z"></path>
<path fill="#cf9e76" style="fill: var(--color38, #cf9e76)" d="M4.5 17h2v1h-2v-1z"></path>
<path fill="#cf9e76" style="fill: var(--color38, #cf9e76)" d="M21.5 17h2v1h-2v-1z"></path>
<path fill="#ffc729" style="fill: var(--color40, #ffc729)" d="M3.5 20h22v1h-22v-1z"></path>
<path fill="#000" style="fill: var(--color42, #000)" d="M21.5 24.5c-1.378 0-2.5 1.122-2.5 2.5s1.122 2.5 2.5 2.5 2.5-1.122 2.5-2.5-1.122-2.5-2.5-2.5zM21.5 28.5c-0.827 0-1.5-0.673-1.5-1.5s0.673-1.5 1.5-1.5 1.5 0.673 1.5 1.5-0.673 1.5-1.5 1.5z"></path>
<path fill="#000" style="fill: var(--color42, #000)" d="M4 26.5c-0.827 0-1.5 0.673-1.5 1.5s0.673 1.5 1.5 1.5 1.5-0.673 1.5-1.5-0.673-1.5-1.5-1.5zM4 28.5c-0.276 0-0.5-0.224-0.5-0.5s0.224-0.5 0.5-0.5 0.5 0.224 0.5 0.5-0.224 0.5-0.5 0.5z"></path>
<path fill="#000" style="fill: var(--color42, #000)" d="M30.5 13.5h-4c-0.827 0-1.5 0.673-1.5 1.5v2.5h-1v-8c0.552 0 1-0.448 1-1v-1c0-0.551-0.448-1-1-1h-0.168c-1.052-2.405-3.459-4-6.104-4h-0.814c-0.172-0.484-0.584-0.855-1.094-0.966-0.381-0.641-1.065-1.034-1.82-1.034h-0.309l-0.191 0.382c-0.191 0.381-0.573 0.618-1 0.618-0.651 0-1.201 0.419-1.408 1h-0.82c-2.644 0-5.052 1.595-6.104 4h-0.168c-0.551 0-1 0.449-1 1v1c0 0.552 0.449 1 1 1v8h-1v7.148c-1.444 0.431-2.5 1.77-2.5 3.352 0 1.93 1.57 3.5 3.5 3.5s3.5-1.57 3.5-3.5c0-0.17-0.016-0.336-0.040-0.5h9.57c0.25 2.247 2.159 4 4.471 4 2.481 0 4.5-2.018 4.5-4.5v-6.5h0.5c0.827 0 1.5-0.673 1.5-1.5v-2.5h2.5c0.552 0 1-0.448 1-1v-1c0-0.552-0.448-1-1-1zM23 17.5h-1v-8h1v8zM18 15.5h-1v-1h1v1zM19 16.5v1h-3v-1h3zM19 15.5v-2h-3v2h-1v2h-2v-2h-1v-2h-3v2h-1v2h-1v-8h5.286l0.889 2h1.65l0.889-2h5.286v8h-1v-2h-1zM11 15.5h-1v-1h1v1zM12 16.5v1h-3v-1h3zM14.175 10.5h-0.35l-1.778-4h3.906l-1.778 4zM24 8.5h-7.842l0.445-1h7.398v1zM22.722 6.5h-5.722v-0.092c0.581-0.207 1-0.757 1-1.408 0-0.691-0.473-1.269-1.11-1.442 0.008-0.018 0.011-0.039 0.018-0.058h0.82c2.098 0 4.020 1.181 4.994 3zM12.5 2.5c0.728 0 1.389-0.365 1.777-0.966 0.31 0.079 0.575 0.288 0.723 0.584l0.191 0.382h0.309c0.275 0 0.5 0.224 0.5 0.5s-0.225 0.5-0.5 0.5h-1v1h2c0.276 0 0.5 0.224 0.5 0.5s-0.224 0.5-0.5 0.5h-5c-0.275 0-0.5-0.224-0.5-0.5s0.225-0.5 0.5-0.5h2v-1h-1c-0.275 0-0.5-0.224-0.5-0.5s0.225-0.5 0.5-0.5zM10.272 3.5h0.82c0.007 0.019 0.011 0.039 0.018 0.058-0.637 0.172-1.11 0.75-1.11 1.442 0 0.651 0.419 1.201 1 1.408v0.092h-5.722c0.974-1.819 2.897-3 4.994-3zM4 7.5h7.398l0.444 1h-7.842v-1zM5 9.5h1v8h-1v-8zM4 18.5h21v1h-21v-1zM4 30.5c-1.378 0-2.5-1.122-2.5-2.5s1.122-2.5 2.5-2.5 2.5 1.122 2.5 2.5-1.122 2.5-2.5 2.5zM17 26.5h-7v-4h7v4zM21.5 30.5c-1.93 0-3.5-1.57-3.5-3.5s1.57-3.5 3.5-3.5 3.5 1.57 3.5 3.5-1.57 3.5-3.5 3.5zM21.5 22.5c-1.413 0-2.675 0.656-3.5 1.678v-2.678h-9v5h-1.843c-0.563-1.18-1.765-2-3.158-2v-4h21v3.678c-0.826-1.022-2.087-1.678-3.5-1.678zM30.5 15.5h-3.5v3.5c0 0.276-0.224 0.5-0.5 0.5h-0.5v-4.5c0-0.276 0.224-0.5 0.5-0.5h4v1z"></path>
<path fill="#000" style="fill: var(--color42, #000)" d="M11 23.5h5v1h-5v-1z"></path>
</symbol>
<symbol id="icon-ice-cream-7" viewBox="0 0 26 32">
<path fill="#000" style="fill: var(--color42, #000)" d="M11.825 8.153v21.86c0 0.639 0.518 1.157 1.157 1.157v0c0.64 0 1.158-0.518 1.158-1.157v0-21.86c0-0.639-0.518-1.157-1.158-1.157v0c-0.639 0-1.157 0.518-1.157 1.157z"></path>
<path fill="#fbca9a" style="fill: var(--color43, #fbca9a)" d="M13.826 30.013c0 0.639-0.518 1.157-1.157 1.157s-1.157-0.518-1.157-1.157v-21.86c0-0.639 0.518-1.157 1.157-1.157s1.157 0.518 1.157 1.157z"></path>
<path fill="#ffdeac" style="fill: var(--color44, #ffdeac)" d="M12.806 4.454c0.041-2.437 0.081-3.924 0.146-4.044 0.024 0.115 0.099 3.348 0.119 6.963-0.046-0.325-0.095 3.837-0.184 2.533-0.039-0.581-0.057 0.834-0.081-5.452z"></path>
<path fill="#f7bc83" style="fill: var(--color45, #f7bc83)" d="M12.734 14.546c0.041-2.436 0.081-3.924 0.146-4.044 0.023 0.116 0.098 3.349 0.118 6.964-0.046-0.324-0.096 3.837-0.183 2.533-0.039-0.581-0.058 0.834-0.081-5.453z"></path>
<path fill="#ffdeac" style="fill: var(--color44, #ffdeac)" d="M13.698 9.603c0.038-4.918 0.075-7.92 0.134-8.161 0.022 0.233 0.090 6.756 0.108 14.051-0.042-0.654-0.088 7.744-0.168 5.112-0.036-1.172-0.053 1.683-0.075-11.002z"></path>
<path fill="#f7bc83" style="fill: var(--color45, #f7bc83)" d="M12.809 17.186c0.037-4.917 0.075-7.919 0.134-8.161 0.021 0.232 0.090 6.756 0.109 14.051-0.042-0.654-0.088 7.745-0.168 5.113-0.036-1.172-0.054 1.682-0.075-11.003z"></path>
<path fill="#f7bc83" style="fill: var(--color45, #f7bc83)" d="M11.854 22.762c0.017-1.508 0.048-2.906 0.068-1.963 0.026 0.79 0.053-0.823 0.036-0.483 0.040-0.281 0.070 1.132 0.087 1.62-0.010 1.939 0.001 11.586-0.005 13.175-0.011-0.502-0.023 2.229-0.070 0.453 0.007 1.378-0.039 0.39-0.049 1.543-0.025-0.948-0.053-0.885-0.053-1.581-0.003-1.897-0.013-13.344-0.015-12.764z"></path>
<path fill="#f7bc83" style="fill: var(--color45, #f7bc83)" d="M11.936 4.324c0.041-2.437 0.081-3.924 0.145-4.044 0.024 0.115 0.099 3.349 0.119 6.963-0.046-0.324-0.096 3.837-0.183 2.533-0.039-0.581-0.058 0.834-0.081-5.452z"></path>
<path fill="#f7bc83" style="fill: var(--color45, #f7bc83)" d="M12.828 9.473c0.038-4.918 0.075-7.92 0.134-8.161 0.021 0.233 0.090 6.756 0.109 14.051-0.042-0.654-0.088 7.744-0.168 5.112-0.036-1.172-0.053 1.683-0.075-11.002z"></path>
<path fill="#f7bc83" style="fill: var(--color45, #f7bc83)" d="M12.174 22.375c0.037-4.917 0.075-7.919 0.134-8.161 0.021 0.233 0.090 6.757 0.109 14.051-0.042-0.654-0.088 7.745-0.168 5.113-0.036-1.172-0.053 1.683-0.075-11.003z"></path>
<path fill="#ffe1bf" style="fill: var(--color46, #ffe1bf)" d="M12.331 7.764c0.041-2.437 0.081-3.924 0.146-4.045 0.023 0.116 0.098 3.348 0.118 6.962-0.046-0.323-0.095 3.838-0.183 2.534-0.039-0.581-0.058 0.834-0.081-5.451z"></path>
<path fill="#fbc690" style="fill: var(--color47, #fbc690)" d="M13.144 15.594c-0.018 1.391-0.048 2.678-0.069 1.81-0.026-0.729-0.053 0.759-0.036 0.446-0.040 0.259-0.070-1.044-0.087-1.494 0.010-1.787-0.001-10.682 0.005-12.147 0.011 0.463 0.023-2.055 0.071-0.417-0.007-1.27 0.039-0.36 0.048-1.422 0.025 0.874 0.053 0.817 0.053 1.457 0.003 1.749 0.013 12.303 0.015 11.768z"></path>
<path fill="#fbc690" style="fill: var(--color47, #fbc690)" d="M13.513 30.571c-0.015 2.928-0.040 5.639-0.057 3.808-0.021-1.532-0.044 1.597-0.030 0.938-0.033 0.545-0.058-2.195-0.072-3.144 0.008-3.762-0.001-22.478 0.004-25.563 0.008 0.974 0.018-4.326 0.058-0.877-0.006-2.675 0.032-0.758 0.040-2.995 0.022 1.84 0.044 1.718 0.044 3.067 0.003 3.68 0.011 25.89 0.013 24.766z"></path>
<path fill="#fbc690" style="fill: var(--color47, #fbc690)" d="M12.525 6.035c-0.018-1.926-0.050-3.71-0.071-2.506-0.027 1.009-0.056-1.051-0.038-0.616-0.042-0.359-0.073 1.445-0.091 2.068 0.010 2.474-0.001 14.788 0.005 16.817 0.011-0.641 0.024 2.846 0.074 0.577-0.007 1.761 0.041 0.499 0.051 1.97 0.027-1.211 0.055-1.131 0.055-2.017 0.003-2.422 0.013-17.034 0.016-16.294z"></path>
<path fill="#fbc690" style="fill: var(--color47, #fbc690)" d="M13.061 32.595c-0.041 2.246-0.081 3.618-0.146 3.728-0.023-0.106-0.098-3.087-0.118-6.42 0.046 0.299 0.096-3.538 0.183-2.336 0.039 0.536 0.058-0.768 0.081 5.028z"></path>
<path fill="#fbc690" style="fill: var(--color47, #fbc690)" d="M12.17 27.848c-0.038 4.533-0.074 7.301-0.134 7.524-0.021-0.214-0.090-6.229-0.108-12.955 0.042 0.603 0.088-7.14 0.168-4.713 0.035 1.080 0.053-1.552 0.074 10.144z"></path>
<path fill="#fbc690" style="fill: var(--color47, #fbc690)" d="M12.666 29.423c-0.041 2.247-0.081 3.618-0.146 3.73-0.023-0.107-0.098-3.087-0.117-6.42 0.046 0.298 0.095-3.538 0.182-2.335 0.039 0.535 0.058-0.769 0.081 5.025z"></path>
<path fill="#fbc690" style="fill: var(--color47, #fbc690)" d="M12.184 12.74c-0.041 2.247-0.081 3.618-0.146 3.729-0.023-0.106-0.098-3.086-0.118-6.419 0.046 0.299 0.096-3.538 0.183-2.336 0.039 0.537 0.057-0.769 0.081 5.027z"></path>
<path fill="#3c2415" style="fill: var(--color48, #3c2415)" opacity="0.300003" d="M13.826 21.996v-14.957c0-0.639-0.518-1.157-1.157-1.157s-1.157 0.518-1.157 1.157v14.668c0.002 0.517 2.314-0.207 2.314 0.289z"></path>
<path fill="#3c2415" style="fill: var(--color48, #3c2415)" opacity="0.300003" d="M12.429 20.040c0.448 0.627 0.047 2.196-0.006 2.505-0.078 0.453-0.027 0.921 0.504 0.921 0.457 0 0.51-0.482 0.449-0.922-0.045-0.33-0.478-1.975-0.182-2.516l0.009-0.002-0.784 0.013c0.003 0 0.006 0.001 0.009 0.001z"></path>
<path fill="#000" style="fill: var(--color42, #000)" d="M14.091 2.071c-0.607 0.405-1.601 0.405-2.208 0v0c0 0-1.862-1.242-3.773-1.242v0c-3.777 0-6.84 2.956-6.84 6.602v0c0 7.455 10.567 13.6 10.567 13.6v0c0.633 0.368 1.667 0.368 2.3 0v0c0 0 10.567-6.146 10.567-13.6v0c0-3.646-3.062-6.602-6.84-6.602v0c-1.911 0-3.773 1.242-3.773 1.242z"></path>
<path fill="#000" style="fill: var(--color42, #000)" d="M13.369 2.208c-0.586 0.405-1.545 0.405-2.131 0v0c0 0-1.798-1.242-3.642-1.242v0c-3.645 0-6.601 2.956-6.601 6.602v0c0 7.455 10.199 13.601 10.199 13.601v0c0.61 0.368 1.609 0.368 2.219 0v0c0 0 10.199-6.146 10.199-13.601v0c0-3.646-2.956-6.602-6.601-6.602v0c-1.845 0-3.642 1.241-3.642 1.241z"></path>
<path fill="#000" style="fill: var(--color42, #000)" d="M5.801 1.216c0.571-0.161 1.172-0.249 1.794-0.249v0c1.844 0 3.642 1.242 3.642 1.242v0c0.491 0.339 1.242 0.393 1.818 0.164v0c-0.423 0.013-0.852-0.087-1.173-0.302v0c0 0-1.862-1.242-3.773-1.242v0c-0.81 0-1.587 0.137-2.308 0.386z"></path>
<path fill="#fff" style="fill: var(--color3, #fff)" opacity="0.199997" d="M5.801 1.216c0 0 0.114-0.033 0.314-0.091 0.099-0.032 0.224-0.055 0.366-0.085 0.071-0.014 0.147-0.033 0.228-0.045s0.167-0.022 0.256-0.033c0.177-0.028 0.372-0.030 0.577-0.043 0.209-0.003 0.42 0 0.648 0.031 0.225 0.027 0.453 0.071 0.683 0.128s0.458 0.129 0.685 0.209c0.224 0.086 0.445 0.179 0.657 0.281 0.214 0.1 0.417 0.21 0.613 0.321 0.097 0.056 0.193 0.112 0.283 0.171 0.045 0.030 0.090 0.060 0.134 0.089 0.037 0.027 0.087 0.054 0.129 0.080 0.086 0.060 0.175 0.087 0.26 0.126 0.087 0.033 0.176 0.054 0.26 0.078 0.086 0.013 0.169 0.030 0.249 0.038 0.079 0.004 0.155 0.011 0.227 0.012 0.072-0.003 0.139-0.006 0.2-0.009 0.062-0.004 0.118-0.018 0.169-0.025 0.103-0.013 0.179-0.041 0.234-0.054l0.082-0.023c0 0-0.028 0.011-0.080 0.030-0.053 0.017-0.128 0.055-0.231 0.073-0.051 0.011-0.108 0.027-0.17 0.036-0.063 0.007-0.131 0.014-0.204 0.023-0.073 0.003-0.151 0.001-0.234 0.002-0.083-0.003-0.168-0.018-0.258-0.028-0.088-0.021-0.181-0.039-0.276-0.070-0.092-0.037-0.195-0.068-0.28-0.123-0.046-0.026-0.088-0.047-0.138-0.078-0.044-0.027-0.089-0.054-0.134-0.082-0.092-0.054-0.185-0.11-0.282-0.163-0.194-0.106-0.397-0.213-0.609-0.308-0.21-0.098-0.429-0.186-0.65-0.268s-0.445-0.156-0.669-0.214c-0.224-0.059-0.448-0.105-0.665-0.134-0.214-0.030-0.434-0.045-0.633-0.049-0.202 0.006-0.395-0.001-0.571 0.020-0.177 0.014-0.339 0.027-0.481 0.051-0.143 0.021-0.268 0.035-0.369 0.061-0.204 0.042-0.321 0.065-0.321 0.065z"></path>
<path fill="#000" style="fill: var(--color42, #000)" d="M16.623 0.985c0.128-0.011 0.258-0.018 0.388-0.018v0c3.646 0 6.601 2.956 6.601 6.602v0c0 7.455-10.199 13.601-10.199 13.601v0c-0.087 0.053-0.184 0.097-0.284 0.135v0c0.368-0.018 0.728-0.109 1.008-0.272v0c0 0 10.567-6.146 10.567-13.6v0c0-3.646-3.062-6.602-6.84-6.602v0c-0.423 0-0.843 0.061-1.241 0.155z"></path>
<path fill="#000" style="fill: var(--color42, #000)" d="M16.623 0.985c0.128-0.011 0.258-0.018 0.388-0.018v0c3.646 0 6.601 2.956 6.601 6.602v0c0 7.455-10.199 13.601-10.199 13.601v0c-0.087 0.053-0.184 0.097-0.284 0.135v0c0.368-0.018 0.728-0.109 1.008-0.272v0c0 0 10.567-6.146 10.567-13.6v0c0-3.646-3.062-6.602-6.84-6.602v0c-0.423 0-0.843 0.061-1.241 0.155z"></path>
<path fill="#000" style="fill: var(--color42, #000)" d="M19.47 16.589c2.893-3.038 4.846-6.173 4.416-9.021-0.852-5.641-3.599-5.846-3.514-5.994 0.163-0.284 4.034 1.808 4.102 5.814 0.060 3.506-2.485 6.789-5.004 9.201z"></path>
<path fill="#000" style="fill: var(--color42, #000)" d="M17.434 0.999c3.147 0.224 5.896 2.932 6.031 6.114v0c0.021 0.492 0.012 0.977-0.052 1.466v0c-0.107 0.853-0.343 1.687-0.668 2.481v0c-0.634 1.581-1.602 3.008-2.701 4.302v0c-1.13 1.323-2.381 2.527-3.721 3.636v0c-0.93 0.771-1.895 1.515-2.912 2.17v0c0.047-0.027 0.094-0.054 0.14-0.082v0c1.292-0.77 2.516-1.673 3.666-2.64v0c1.252-1.052 2.427-2.194 3.455-3.467v0c1.066-1.321 1.998-2.787 2.543-4.403v0c0.278-0.825 0.465-1.693 0.501-2.563v0c0.026-0.63 0.010-1.283-0.149-1.897v0c-0.191-0.732-0.444-1.425-0.853-2.066v0c-0.425-0.667-0.972-1.256-1.598-1.74v0c-0.612-0.494-1.331-0.808-2.069-1.063v0c-0.654-0.226-1.355-0.262-2.040-0.281v0c0.141 0.011 0.282 0.022 0.424 0.032z"></path>
<path fill="#000" style="fill: var(--color42, #000)" d="M23.744 7.307c0.002 0.068 0.005 0.193 0.005 0.261v0c0 3.899-2.797 7.424-5.141 9.695v0c-2.532 2.451-5.099 4.008-5.124 4.023v0c-0.096 0.058-0.202 0.107-0.315 0.148v0c0.074 0.006 0.149 0.010 0.225 0.010v0c0.445 0 0.865-0.105 1.181-0.295v0c0.025-0.015 2.592-1.573 5.124-4.024v0c2.346-2.27 5.142-5.796 5.142-9.694v0c0-0.084-0.003-0.168-0.007-0.251v0c-0.141-0.083-0.22-0.273-0.499-0.273v0c-0.193 0-0.382 0.16-0.591 0.4z"></path>
<path fill="#000" style="fill: var(--color42, #000)" d="M19.699 17.126c2.723-2.608 5.098-6.038 5.135-9.946v0z"></path>
<path fill="#000" style="fill: var(--color42, #000)" d="M18.608 17.263c2.345-2.271 5.141-5.796 5.141-9.695v0c0-0.068-0.003-0.193-0.005-0.261v0z"></path>
<path fill="#2a0f08" style="fill: var(--color49, #2a0f08)" d="M12.492 21.567c-0.349 0-0.564-0.326-0.564-0.58s0.274-0.454 0.623-0.454h1.036c0.35 0 0.623 0.199 0.623 0.454s-0.273 0.454-0.623 0.454z"></path>
<path fill="#7c3019" style="fill: var(--color50, #7c3019)" d="M23.749 7.519l-0.018-0.42c0.287-0.049 0.307-0.398 0.604-0.398 0.276 0 0.476 0.118 0.499 0.227v0.252c-0.063-0.037-0.293-0.145-0.499-0.068-0.14 0.052-0.477 0.406-0.586 0.406z"></path>
<path fill="#000" style="fill: var(--color42, #000)" d="M1.779 7.453c0.040-0.040 0.078-0.078 0.113-0.109 0.204-0.184 0.428-0.001 0.623 0.131 0.072 0.048 0.301 0.236 0.345 0.163 0.048-0.064 0.135-0.168 0.324-0.212 0.223-0.053 0.404 0.035 0.549 0.107 0.072 0.035 0.139 0.068 0.196 0.076 0.153 0.023 0.288 0.014 0.418 0.005 0.275-0.018 0.56-0.038 0.912 0.242 0.186 0.147 0.333 0.3 0.475 0.448 0.287 0.298 0.514 0.534 0.944 0.613l0.134 0.025c0.545 0.102 0.545 0.102 0.936-0.378 0.175-0.215 0.708-0.869 1.493-0.612 0.255 0.083 0.431 0.268 0.587 0.43 0.125 0.13 0.243 0.254 0.378 0.3 0.072 0.025 0.165 0.022 0.271 0.018 0.142-0.004 0.304-0.009 0.473 0.051 0.361 0.129 0.677 0.356 0.981 0.575 0.205 0.148 0.399 0.288 0.602 0.396 1.002 0.536 1.696 0.412 2.395-0.429 0.539-0.65 0.922-0.495 1.328-0.331 0.246 0.1 0.525 0.212 0.939 0.212 0.906 0 2.288-0.35 3.202-0.583 0.241-0.061 0.453-0.115 0.622-0.154 0.345-0.079 0.818-0.251 1.117-0.615 0.105-0.127 0.177-0.256 0.248-0.38 0.138-0.244 0.281-0.494 0.627-0.644-0.381-2.974-2.926-5.28-6.001-5.28-1.645 0-3.313 1.133-3.329 1.144-0.374 0.259-0.864 0.401-1.378 0.401s-1.003-0.143-1.378-0.401c-0.016-0.012-1.675-1.144-3.329-1.144-3.337 0-6.052 2.715-6.052 6.052 0 0.027 0.001 0.055 0.001 0.082 0.098-0.016 0.174-0.138 0.234-0.198z"></path>
<path fill="#fff" style="fill: var(--color3, #fff)" opacity="0.100006" d="M17.282 2.049c3.049 0.141 4.621 2.514 4.864 4.985-0.091 0.042-0.181 0.109-0.266 0.167-0.071 0.048-0.3 0.236-0.345 0.162-0.048-0.064-0.135-0.168-0.324-0.212-0.17-0.040-0.316 0.002-0.44 0.056-0.128-1.752-0.79-4.336-3.49-5.158z"></path>
<path fill="#fff" style="fill: var(--color3, #fff)" opacity="0.5" d="M23.612 7.569c0 0-0.016-0.222-0.044-0.611-0.020-0.193-0.069-0.425-0.111-0.692-0.032-0.131-0.073-0.27-0.112-0.416-0.020-0.073-0.040-0.148-0.061-0.225-0.028-0.074-0.056-0.15-0.085-0.228s-0.059-0.157-0.090-0.238c-0.030-0.081-0.061-0.164-0.103-0.242-0.081-0.16-0.159-0.328-0.248-0.495-0.1-0.162-0.203-0.327-0.309-0.497-0.12-0.159-0.242-0.322-0.367-0.488-0.134-0.157-0.28-0.309-0.423-0.467-0.153-0.147-0.317-0.289-0.477-0.435-0.173-0.131-0.349-0.262-0.526-0.391-0.189-0.112-0.376-0.231-0.568-0.337-0.2-0.093-0.394-0.199-0.597-0.282-0.103-0.038-0.206-0.076-0.308-0.114-0.104-0.035-0.203-0.083-0.309-0.105-0.105-0.028-0.21-0.055-0.314-0.082-0.105-0.024-0.206-0.061-0.312-0.073-0.211-0.030-0.418-0.071-0.624-0.091-0.207-0.012-0.41-0.023-0.609-0.034-0.1 0.003-0.199 0.006-0.296 0.008s-0.191 0.018-0.286 0.027c-0.375 0.046-0.728 0.128-1.045 0.226-0.635 0.2-1.141 0.437-1.485 0.62-0.345 0.181-0.531 0.304-0.531 0.304s0.045-0.033 0.133-0.090c0.087-0.058 0.216-0.141 0.386-0.238 0.169-0.098 0.379-0.208 0.625-0.326 0.246-0.117 0.531-0.236 0.849-0.343 0.319-0.106 0.673-0.196 1.057-0.252 0.096-0.011 0.195-0.028 0.293-0.033 0.099-0.005 0.199-0.010 0.3-0.015 0.203 0.009 0.41 0.019 0.62 0.028 0.21 0.019 0.421 0.059 0.636 0.089 0.108 0.011 0.212 0.048 0.319 0.072 0.107 0.027 0.214 0.054 0.321 0.081 0.109 0.022 0.21 0.071 0.316 0.105 0.105 0.038 0.21 0.076 0.316 0.114 0.208 0.084 0.407 0.19 0.611 0.284 0.196 0.11 0.385 0.233 0.577 0.348 0.18 0.133 0.359 0.268 0.534 0.403 0.162 0.151 0.328 0.296 0.483 0.447 0.144 0.162 0.292 0.318 0.428 0.479 0.125 0.17 0.251 0.334 0.368 0.5 0.103 0.174 0.205 0.345 0.303 0.511 0.087 0.172 0.163 0.344 0.241 0.507 0.042 0.081 0.071 0.165 0.1 0.248 0.030 0.083 0.058 0.164 0.086 0.243s0.055 0.157 0.081 0.233c0.019 0.078 0.037 0.154 0.056 0.229 0.035 0.149 0.071 0.29 0.099 0.423 0.034 0.271 0.075 0.506 0.088 0.7 0.012 0.39 0.018 0.613 0.018 0.613z"></path>
<path fill="#3a170b" style="fill: var(--color51, #3a170b)" d="M12.345 20.040c0.447 0.627 0.047 2.196-0.006 2.505-0.078 0.453-0.027 0.921 0.504 0.921 0.457 0 0.51-0.482 0.449-0.922-0.045-0.33-0.478-1.975-0.182-2.516 0.003-0.001 0.006-0.001 0.009-0.002l-0.784 0.013c0.003 0 0.006 0.001 0.009 0.001z"></path>
<path fill="#000" style="fill: var(--color42, #000)" d="M23.276 7.347c-0.619 0.158-0.615 0.583-0.98 1.029v0c-0.306 0.373-0.775 0.58-1.23 0.685v0c-0.833 0.193-2.704 0.742-3.871 0.742v0c-1.167 0-1.383-0.83-2.109 0.044v0c-0.772 0.929-1.585 1.049-2.65 0.479v0c-0.527-0.281-0.99-0.758-1.555-0.959v0c-0.133-0.047-0.267-0.043-0.397-0.039v0c-0.12 0.004-0.237 0.008-0.345-0.029v0c-0.374-0.128-0.56-0.597-0.962-0.729v0c-0.54-0.177-0.944 0.146-1.27 0.546v0c-0.499 0.613-0.505 0.565-1.266 0.426v0c-0.726-0.133-0.959-0.664-1.51-1.102v0c-0.292-0.233-0.516-0.215-0.778-0.197v0c-0.136 0.009-0.282 0.018-0.455-0.007v0c-0.223-0.034-0.417-0.246-0.666-0.186v0c-0.321 0.076-0.14 0.366-0.576 0.147v0c-0.251-0.126-0.501-0.387-0.627-0.275v0c-0.124 0.112-0.292 0.314-0.423 0.346v0c-0.316 0.077-0.51-0.141-0.719-0.329v0c-0.18 0.429 0.11 0.949 0.188 1.373v0c0.097 0.526 0.131 1.067 0.354 1.561v0c0.218 0.484 0.585 0.885 0.782 1.381v0c0.199 0.501 0.252 1.046 0.522 1.52v0c0.457 0.806 1.201 1.385 1.889 1.983v0c0.685 0.596 1.051 1.038 1.181 1.949v0c0.045 0.314 0.177 0.611 0.526 0.499v0c0.044-0.014 0.080-0.034 0.109-0.057v0c-0.026 0.303-0.065 0.551-0.075 0.652v0c-0.040 0.415 0.037 0.835 0.517 0.8v0c0.413-0.030 0.381-0.463 0.344-0.864v0c-0.066-0.721 3.143 2.101 3.898 2.554v0c0.263 0.158 0.597 0.257 0.958 0.286v0l0.541-0.009c0.324-0.038 0.623-0.132 0.862-0.277v0c0.025-0.015 2.592-1.573 5.124-4.023v0c2.345-2.271 5.141-5.796 5.141-9.695v0c0-0.088-0.003-0.176-0.007-0.264v0c-0.037-0.003-0.075-0.005-0.113-0.005v0c-0.11 0-0.227 0.014-0.353 0.047z"></path>
<path fill="#000" style="fill: var(--color42, #000)" d="M12.955 16.146c-1.201 0.297-2.43 0.491-3.665 0.564-0.516 0.030-1.040 0.057-1.556 0.018-0.463-0.035-0.754 0.787-0.4 1.050 0.485 0.36 0.927 0.77 1.397 1.148 0.724 0.581 1.493 1.121 2.27 1.627 0.135 0.088 0.267 0.18 0.405 0.262 0.187 0.113 0.444 0.187 0.723 0.209l0.217 0.017 0.207-0.023c0.251-0.029 0.475-0.099 0.646-0.202 0.025-0.015 2.559-1.56 5.026-3.948 1.403-1.358 2.972-3.175 3.965-5.241 0.344-0.715-0.039-0.9-0.61-0.275-1.928 2.114-4.977 3.892-8.626 4.793z"></path>
<path fill="#7c3019" style="fill: var(--color50, #7c3019)" d="M23.225 7.147c-0.508 0.13-0.677 0.428-0.841 0.718-0.071 0.124-0.143 0.252-0.248 0.38-0.299 0.364-0.772 0.535-1.117 0.615-0.169 0.039-0.381 0.093-0.622 0.154-0.914 0.232-2.297 0.583-3.203 0.583-0.414 0-0.692-0.113-0.939-0.213-0.406-0.164-0.789-0.319-1.328 0.331-0.698 0.841-1.392 0.966-2.394 0.429-0.203-0.108-0.397-0.248-0.602-0.396-0.305-0.22-0.62-0.447-0.981-0.576-0.169-0.061-0.331-0.055-0.474-0.050-0.107 0.003-0.198 0.006-0.271-0.019-0.135-0.046-0.253-0.169-0.378-0.3-0.156-0.162-0.332-0.346-0.587-0.43-0.786-0.257-1.318 0.397-1.493 0.612-0.391 0.48-0.391 0.48-0.935 0.378l-0.134-0.025c-0.43-0.079-0.657-0.314-0.944-0.612-0.142-0.148-0.289-0.301-0.475-0.448-0.352-0.28-0.637-0.261-0.912-0.242-0.13 0.009-0.265 0.018-0.418-0.005-0.057-0.008-0.124-0.042-0.196-0.076-0.145-0.071-0.326-0.16-0.549-0.107-0.188 0.045-0.276 0.149-0.324 0.212-0.044 0.073-0.273-0.115-0.345-0.163-0.195-0.131-0.419-0.315-0.623-0.131-0.035 0.032-0.073 0.069-0.113 0.109-0.061 0.061-0.139 0.189-0.241 0.199-0.329-0.004-0.335-0.38-0.597-0.362 0 0-0.11 0.263-0.099 0.401 0.262 0.237 0.684 0.367 0.812 0.352 0.216-0.024 0.289-0.356 0.473-0.356s0.477 0.371 0.775 0.371c0.102 0 0.194-0.049 0.278-0.163 0.031-0.041 0.043-0.057 0.098-0.070 0.076-0.018 0.153 0.017 0.273 0.076 0.092 0.045 0.196 0.096 0.315 0.114 0.198 0.030 0.363 0.018 0.508 0.008 0.25-0.017 0.401-0.027 0.628 0.154 0.164 0.13 0.301 0.273 0.435 0.411 0.297 0.309 0.605 0.629 1.166 0.732l0.133 0.025c0.726 0.136 0.825 0.097 1.33-0.523 0.371-0.456 0.684-0.6 1.046-0.481 0.157 0.052 0.283 0.184 0.418 0.323 0.154 0.161 0.313 0.327 0.543 0.405 0.143 0.049 0.289 0.044 0.417 0.040 0.117-0.004 0.227-0.007 0.322 0.027 0.306 0.109 0.584 0.31 0.878 0.522 0.207 0.15 0.421 0.304 0.649 0.425 0.455 0.244 0.875 0.366 1.264 0.366 0.607 0 1.144-0.296 1.641-0.896 0.348-0.419 0.476-0.366 0.857-0.212 0.253 0.102 0.599 0.242 1.093 0.242 0.957 0 2.369-0.359 3.304-0.596 0.236-0.060 0.445-0.113 0.613-0.152 0.407-0.094 0.97-0.301 1.343-0.755 0.127-0.155 0.212-0.305 0.288-0.438 0.153-0.271 0.24-0.464 0.584-0.522 0.255-0.042 0.421-0.027 0.421-0.027 0-0.158-0.008-0.265-0.018-0.42-0.164-0.011-0.33 0.003-0.505 0.049z"></path>
<path fill="#83401f" style="fill: var(--color52, #83401f)" d="M0.886 8.154c0 0 0.013 0.009 0.036 0.025 0.024 0.015 0.056 0.044 0.104 0.069 0.045 0.027 0.102 0.057 0.171 0.085s0.147 0.053 0.234 0.075c0.086 0.015 0.189 0.042 0.271 0.007 0.080-0.036 0.139-0.132 0.214-0.222 0.037-0.044 0.083-0.097 0.158-0.121 0.019-0.006 0.034-0.007 0.061-0.008 0.015 0.002 0.027 0.001 0.048 0.007 0.040 0.011 0.068 0.024 0.097 0.040 0.112 0.062 0.207 0.139 0.309 0.201 0.099 0.064 0.206 0.118 0.311 0.121 0.015-0.003 0.060-0.004 0.080-0.012 0.020-0.012 0.042-0.013 0.063-0.032 0.045-0.027 0.076-0.068 0.114-0.112 0.006-0.010 0.022-0.025 0.036-0.038 0.017-0.011 0.036-0.022 0.051-0.025l0.025-0.007c0.020-0.003 0.018-0.002 0.027-0.003 0.014-0 0.027-0.002 0.043-0.001 0.073 0.011 0.122 0.036 0.17 0.060 0.096 0.047 0.181 0.097 0.265 0.124 0.083 0.029 0.164 0.033 0.24 0.042 0.074 0.009 0.139 0.018 0.192 0.015 0.107 0.002 0.168 0.003 0.168 0.003s-0.061 0.006-0.169 0.018c-0.055 0.008-0.119 0.005-0.194 0.003-0.037-0.001-0.077-0.002-0.119-0.003-0.045 0-0.089-0.012-0.135-0.023-0.094-0.024-0.185-0.071-0.28-0.111-0.047-0.021-0.098-0.037-0.135-0.044-0.061 0.005-0.088 0.003-0.117 0.045-0.036 0.043-0.076 0.097-0.133 0.133-0.023 0.022-0.063 0.033-0.096 0.047-0.037 0.011-0.054 0.010-0.098 0.015-0.139-0.002-0.26-0.065-0.366-0.131-0.105-0.068-0.202-0.148-0.3-0.204-0.023-0.014-0.050-0.025-0.068-0.031-0.007-0.005-0.027-0.005-0.040-0.007-0.002 0.001-0.018 0-0.026 0.004-0.040 0.011-0.080 0.047-0.115 0.089-0.072 0.082-0.138 0.186-0.256 0.234-0.056 0.022-0.118 0.019-0.167 0.011-0.052-0.006-0.099-0.021-0.144-0.032-0.090-0.028-0.169-0.061-0.236-0.097s-0.123-0.071-0.167-0.104c-0.046-0.029-0.073-0.062-0.096-0.080-0.021-0.019-0.032-0.030-0.032-0.030z"></path>
<path fill="#8e402b" style="fill: var(--color53, #8e402b)" d="M10.813 9.56c0.48 0.187 0.863 0.506 1.307 0.757 0.452 0.257 0.959 0.486 1.481 0.478 0.306-0.024 0.604-0.088 0.868-0.253 0.168-0.106 0.319-0.228 0.462-0.366s0.258-0.305 0.404-0.439c0.129-0.118 0.273-0.201 0.453-0.18 0.191 0.022 0.375 0.127 0.554 0.191 0.211 0.076 0.432 0.129 0.656 0.145 0.705 0.050 1.422-0.097 2.11-0.236 0.419-0.084 0.834-0.179 1.249-0.275 0.388-0.089 0.79-0.156 1.167-0.285 0.362-0.124 0.663-0.324 0.933-0.592-0.208 0.242-0.438 0.436-0.725 0.579-0.364 0.181-0.764 0.267-1.155 0.372-0.821 0.22-1.643 0.449-2.485 0.573-0.525 0.077-1.098 0.139-1.614-0.023-0.133-0.042-0.263-0.090-0.394-0.139-0.186-0.075-0.371-0.173-0.552-0.037-0.143 0.107-0.251 0.264-0.373 0.393-0.143 0.151-0.303 0.287-0.476 0.402-0.605 0.4-1.297 0.398-1.953 0.129-0.707-0.29-1.231-0.865-1.914-1.193z"></path>
<path fill="#ad6337" style="fill: var(--color54, #ad6337)" opacity="0.199997" d="M1.655 8.467c-0.001-0.002 0.044-0 0.109-0.045 0.066-0.043 0.125-0.142 0.224-0.251 0.026-0.026 0.057-0.053 0.1-0.064 0.042-0.012 0.087-0.004 0.13 0.014 0.084 0.035 0.161 0.092 0.245 0.148s0.174 0.115 0.276 0.155c0.051 0.018 0.106 0.032 0.161 0.033 0.021-0.004 0.060-0.005 0.084-0.015 0.023-0.013 0.049-0.017 0.071-0.038 0.049-0.032 0.082-0.079 0.126-0.132 0.013-0.016 0.030-0.029 0.049-0.038 0.020-0.006 0.032-0.014 0.058-0.016 0.017-0.001 0.033-0.004 0.050-0.003l0.059 0.011c0.14 0.043 0.253 0.12 0.386 0.157 0.032 0.008 0.069 0.016 0.098 0.020 0.036 0.002 0.072 0.004 0.109 0.007 0.073 0.002 0.148 0.013 0.221 0.005 0.073-0.004 0.147-0.009 0.223-0.013 0.077-0.004 0.157-0.010 0.24 0.002 0.169 0.018 0.318 0.121 0.435 0.23 0.060 0.054 0.122 0.104 0.181 0.162s0.116 0.117 0.174 0.176c0.114 0.118 0.229 0.234 0.352 0.339 0.126 0.102 0.26 0.194 0.407 0.261 0.073 0.033 0.149 0.061 0.226 0.085 0.079 0.018 0.155 0.041 0.237 0.054 0.163 0.030 0.325 0.063 0.482 0.074 0.079 0.004 0.157 0.004 0.229-0.014s0.14-0.051 0.202-0.094c0.122-0.090 0.226-0.21 0.326-0.327 0.049-0.057 0.099-0.121 0.15-0.177 0.050-0.057 0.098-0.115 0.157-0.167 0.109-0.11 0.235-0.197 0.372-0.256 0.138-0.063 0.294-0.063 0.428-0.034 0.035 0.010 0.066 0.013 0.103 0.029 0.030 0.014 0.059 0.028 0.089 0.042 0.055 0.036 0.116 0.076 0.159 0.121 0.185 0.174 0.323 0.356 0.491 0.466 0.039 0.033 0.083 0.052 0.125 0.072s0.080 0.042 0.124 0.050c0.042 0.014 0.083 0.021 0.122 0.025 0.039 0.007 0.077 0.007 0.113 0.009 0.145 0.004 0.26-0.004 0.338 0.008 0.078 0.009 0.116 0.029 0.117 0.026-0.001 0.003-0.040-0.015-0.117-0.021-0.078-0.009-0.192 0.002-0.338 0.005-0.036-0-0.075 0.001-0.116-0.005-0.042-0.003-0.083-0.009-0.126-0.021-0.043-0.006-0.087-0.028-0.131-0.047s-0.091-0.038-0.132-0.069c-0.178-0.108-0.328-0.29-0.509-0.454-0.166-0.167-0.464-0.244-0.712-0.132-0.253 0.11-0.443 0.351-0.641 0.59-0.101 0.119-0.205 0.243-0.341 0.345-0.068 0.049-0.148 0.090-0.233 0.11s-0.172 0.022-0.257 0.018c-0.169-0.011-0.331-0.043-0.494-0.072-0.081-0.013-0.165-0.036-0.248-0.055-0.082-0.024-0.163-0.054-0.241-0.088-0.157-0.072-0.297-0.171-0.428-0.278-0.127-0.11-0.244-0.231-0.357-0.348-0.056-0.058-0.112-0.115-0.169-0.173s-0.119-0.108-0.179-0.162c-0.114-0.108-0.241-0.195-0.386-0.211-0.143-0.019-0.299 0.007-0.454 0.007-0.078 0.006-0.15-0.006-0.224-0.011-0.036-0.003-0.073-0.006-0.109-0.008-0.042-0.007-0.076-0.015-0.113-0.025-0.143-0.044-0.264-0.127-0.381-0.165l-0.039-0.010c-0.015-0-0.033 0.002-0.049 0.002-0.008-0.001-0.026 0.006-0.037 0.010-0.010 0.005-0.020 0.011-0.028 0.021-0.040 0.046-0.083 0.105-0.14 0.14-0.12 0.086-0.258 0.063-0.366 0.018-0.109-0.047-0.198-0.111-0.28-0.171s-0.157-0.118-0.234-0.154c-0.037-0.017-0.079-0.027-0.115-0.018-0.037 0.008-0.067 0.032-0.093 0.056-0.099 0.102-0.165 0.202-0.233 0.243-0.067 0.043-0.112 0.039-0.111 0.042z"></path>
<path fill="#000" style="fill: var(--color42, #000)" d="M6.598 18.493c-0.079 0.18-0.355 0.93 0.148 0.98 0.706 0.069-0.069-1.159-0.148-0.98z"></path>
<path fill="#000" style="fill: var(--color42, #000)" d="M12.52 22.332c-0.079 0.18-0.355 0.93 0.148 0.98 0.706 0.069-0.069-1.16-0.148-0.98z"></path>
<path fill="#000" style="fill: var(--color42, #000)" d="M5.802 16.662c0 0.306-0 1.595 0.441 1.498 0.44-0.095-0.441-1.68-0.441-1.498z"></path>
<path fill="#000" style="fill: var(--color42, #000)" d="M17.897 17.928c-2.28 2.064-4.39 3.345-4.413 3.358v0c-0.096 0.058-0.202 0.107-0.315 0.148v0c0.074 0.006 0.149 0.010 0.225 0.010v0c0.445 0 0.865-0.105 1.181-0.295v0c0.025-0.015 2.592-1.573 5.124-4.024v0z"></path>
<path fill="#7c3019" style="fill: var(--color50, #7c3019)" d="M14.776 20.439c0.607-0.423 1.194-0.87 1.777-1.326 1.184-0.926 2.303-1.958 3.318-3.067 2.189-2.389 4.052-5.549 4.013-8.89-0.018 0.018-0.037 0.037-0.055 0.056l-0.085 0.094c0 0-0.020-0.002-0.047-0.004-0.028-0.002-0.057-0.002-0.086-0.002 0.076 2.849-1.286 5.471-3.002 7.662-1.062 1.355-2.296 2.549-3.591 3.678-0.642 0.561-1.316 1.097-2.008 1.595-0.329 0.236-0.657 0.471-0.992 0.697-0.274 0.185-0.542 0.373-0.848 0.501l-0.001 0c0.576-0.232 1.099-0.642 1.606-0.996z"></path>
<path fill="#ffa1cc" style="fill: var(--color55, #ffa1cc)" d="M23.277 3.417c0.208 0.182 0.479 0.607 1.132 1.008 0.848 0.52-0.162 1.11-0.37 0.556-0.367-0.984-0.762-1.564-0.762-1.564z"></path>
<path fill="#000" style="fill: var(--color42, #000)" d="M24.339 4.571c0.109 0.083 0.332 0.166 0.255 0.395-0.083 0.243-0.41 0.192-0.462-0.145s-0.114-0.441-0.114-0.441z"></path>
<path fill="#000" style="fill: var(--color42, #000)" d="M1.491 5.855c-0.773 0.584 0.624 1.892 1.043 0.321v0c0.323-1.212 0.864-1.835 1.052-2.245v0c0 0-0.725 0.889-2.095 1.924z"></path>
<path fill="#f44d90" style="fill: var(--color56, #f44d90)" d="M1.313 6.068c-0.479 0.55 0.492 1.491 0.989 0.617-0.475 0.61-1.24-0.095-0.989-0.617z"></path>
<path fill="#000" style="fill: var(--color42, #000)" d="M2.274 6.134c-0.079 0.21-0.106 0.599-0.5 0.583-0.42-0.016-0.493-0.553 0.012-0.792s0.638-0.385 0.638-0.385z"></path>
<path fill="#000" style="fill: var(--color42, #000)" d="M6.812 19.597c0.022 0.001 0.045 0.001 0.069-0.001v0c0.413-0.030 0.429-0.47 0.344-0.864v0c-0.009 0.629-0.192 0.861-0.413 0.865z"></path>
</symbol>
<symbol id="icon-ice-cream-8" viewBox="0 0 14 32">
<path fill="#cda369" style="fill: var(--color57, #cda369)" d="M8.096 27.706c0 0.762-0.539 1.398-1.256 1.55 0.106 0.022 0.216 0.035 0.329 0.035 0.876 0 1.586-0.712 1.586-1.586l-0.153-5.36c-0.211 0.052-0.431 0.091-0.654 0.119z"></path>
<path fill="#eb6b7d" style="fill: var(--color58, #eb6b7d)" d="M7.169 2.708c-0.111 0-0.221 0.004-0.329 0.010 2.309 0.113 4.13 1.436 4.13 3.788v2.479h0.659v-2.479c0-2.464-1.997-3.797-4.461-3.797z"></path>
<path fill="#e1e2e0" style="fill: var(--color59, #e1e2e0)" d="M10.97 15.826h0.659v-6.841h-0.659z"></path>
<path fill="#90c5b3" style="fill: var(--color60, #90c5b3)" d="M10.97 15.826v2.89c0 1.71-0.962 2.874-2.375 3.428-0.209 0.081-0.427 0.15-0.653 0.203-0.35 0.086-0.72 0.139-1.102 0.159 0.108 0.004 0.218 0.007 0.329 0.007 0.266 0 0.524-0.015 0.778-0.046 0.224-0.028 0.443-0.067 0.655-0.119 1.76-0.425 3.028-1.668 3.028-3.631v-2.89z"></path>
<path fill="#deb572" style="fill: var(--color61, #deb572)" d="M7.947 22.466c-0.253 0.031-0.513 0.046-0.778 0.046-0.111 0-0.221-0.003-0.33-0.007-0.384-0.020-0.754-0.073-1.102-0.159l-0.005 0.119-0.15 5.241c0 0.762 0.539 1.398 1.257 1.55 0.717-0.153 1.256-0.788 1.256-1.55z"></path>
<path fill="#a0d7c6" style="fill: var(--color62, #a0d7c6)" d="M8.275 15.826h-5.567v2.89c0 1.71 0.963 2.874 2.377 3.428 0.207 0.081 0.425 0.15 0.652 0.203 0.349 0.086 0.719 0.139 1.103 0.159 0.382-0.020 0.753-0.073 1.101-0.159 0.227-0.053 0.445-0.121 0.653-0.203 1.414-0.554 2.376-1.718 2.376-3.428v-2.89z"></path>
<path fill="#f2838f" style="fill: var(--color63, #f2838f)" d="M2.708 6.505v2.48h8.262v-2.48c0-2.352-1.821-3.675-4.13-3.788-2.31 0.113-4.131 1.436-4.131 3.788z"></path>
<path fill="#efefeb" style="fill: var(--color64, #efefeb)" d="M2.708 8.984v6.841h8.262v-6.841z"></path>
<path fill="#fff" style="fill: var(--color3, #fff)" opacity="0.199997" d="M10.307 19.278c0 0.447-0.36 0.805-0.805 0.805s-0.806-0.358-0.806-0.805v-13.586c0-0.444 0.362-0.804 0.806-0.804s0.805 0.36 0.805 0.804z"></path>
</symbol>
<symbol id="icon-ice-cream-9" viewBox="0 0 19 32">
<path fill="#f2f2f2" style="fill: var(--color65, #f2f2f2)" d="M13.115 8.094c1.034 1.418 3.15 2.538 3.629 2.714-0.301 0.542-0.691 0.975-1.237 1.18-1.663 0.627-3.764-0.863-4.692-3.328-0.926-2.466-0.379-4.934 1.286-5.56-0.455 0.986 0.018 3.627 1.015 4.993z"></path>
<path fill="#f9ce66" style="fill: var(--color66, #f9ce66)" d="M11.414 21.875c0-0.257-0.209-0.466-0.468-0.466h-2.469c-0.257 0-0.466 0.209-0.466 0.466v4.484c0 0.010 0.002 0.025 0.002 0.034 0 0.026-0.002 0.050-0.002 0.075v1.147c0 0.787 0.531 1.441 1.252 1.641 0.144 0.038 0.293 0.060 0.449 0.060 0.941 0 1.701-0.761 1.701-1.701v-1.147c0-0.025-0.002-0.048-0.002-0.075 0-0.009 0.002-0.024 0.002-0.034z"></path>
<path fill="#f2b457" style="fill: var(--color67, #f2b457)" d="M11.414 21.875c0-0.257-0.209-0.466-0.468-0.466h-0.688c0.194 0.056 0.337 0.234 0.337 0.446v4.483c0 0.013 0 0.025-0.002 0.035 0.002 0.026 0.002 0.051 0.002 0.074v1.147c0 0.813-0.57 1.492-1.331 1.662 0.144 0.038 0.293 0.060 0.449 0.060 0.941 0 1.701-0.761 1.701-1.701v-1.147c0-0.025-0.002-0.048-0.002-0.075 0-0.009 0.002-0.024 0.002-0.034z"></path>
<path fill="#f9ce66" style="fill: var(--color66, #f9ce66)" d="M10.595 27.595v-1.147c0-0.023 0-0.047-0.002-0.074 0.002-0.010 0.002-0.022 0.002-0.035v-4.483c0-0.212-0.142-0.39-0.336-0.446h-1.781c-0.257 0-0.467 0.21-0.467 0.466v4.484c0 0.010 0.002 0.025 0.002 0.034 0 0.026-0.002 0.050-0.002 0.075v1.147c0 0.787 0.531 1.441 1.252 1.641 0.761-0.17 1.331-0.849 1.331-1.662z"></path>
<path fill="#f38eb0" style="fill: var(--color68, #f38eb0)" d="M16.541 10.875c0.066-0.006 0.133-0.007 0.204-0.014v-0.053c-0.070 0.024-0.137 0.047-0.204 0.067z"></path>
<path fill="#eedbbe" style="fill: var(--color69, #eedbbe)" d="M11.178 5.882c0-0.947 0.268-1.831 0.723-2.585-0.782 0.825-1.265 1.939-1.265 3.166 0 2.543 2.058 4.603 4.6 4.603 0.453 0 0.89-0.069 1.305-0.191-0.12 0.009-0.235 0.018-0.355 0.018-2.766 0-5.009-2.244-5.009-5.011z"></path>
<path fill="#f38eb0" style="fill: var(--color68, #f38eb0)" d="M12.1 3.1c-0.022-0.006-0.044-0.014-0.066-0.022-0.048 0.072-0.087 0.145-0.133 0.219 0.064-0.067 0.132-0.132 0.2-0.197z"></path>
<path fill="#f38eb0" style="fill: var(--color68, #f38eb0)" d="M16.745 10.861c-0.070 0.008-0.137 0.009-0.204 0.014-0.416 0.122-0.852 0.19-1.305 0.19-2.542 0-4.6-2.061-4.6-4.603 0-0.922 0.27-1.776 0.736-2.494 0.076-0.119 0.159-0.234 0.248-0.346 0.002-0.002 0.004-0.003 0.004-0.003 0.085-0.113 0.181-0.221 0.277-0.324 0.046-0.074 0.085-0.147 0.133-0.22-0.724-0.253-1.506-0.394-2.32-0.394-0.109 0-0.218 0.005-0.327 0.009-0.060 0.003-0.118 0.008-0.18 0.012-0.041 0.003-0.083 0.005-0.128 0.009-0.080 0.008-0.157 0.014-0.237 0.026-0.018 0.002-0.037 0.005-0.053 0.008-0.089 0.012-0.18 0.024-0.269 0.041-1.112 0.189-2.135 0.639-3.004 1.286-0.104 0.078-0.202 0.157-0.3 0.239-0.022 0.019-0.045 0.035-0.064 0.054-0.074 0.062-0.146 0.127-0.219 0.194-0.027 0.027-0.055 0.053-0.084 0.082-0.063 0.061-0.124 0.119-0.186 0.183-0.027 0.030-0.059 0.061-0.087 0.090-0.059 0.064-0.118 0.128-0.173 0.196-0.027 0.028-0.052 0.058-0.078 0.088-0.066 0.080-0.132 0.161-0.194 0.243-0.013 0.016-0.028 0.033-0.039 0.049-0.076 0.101-0.15 0.204-0.221 0.311-0.014 0.019-0.027 0.041-0.041 0.064-0.055 0.082-0.109 0.167-0.159 0.254-0.022 0.034-0.043 0.069-0.062 0.106-0.043 0.075-0.081 0.149-0.122 0.222-0.022 0.042-0.043 0.082-0.064 0.123-0.035 0.074-0.070 0.149-0.108 0.226-0.016 0.038-0.035 0.080-0.055 0.119-0.033 0.085-0.068 0.171-0.102 0.258-0.012 0.032-0.026 0.063-0.039 0.096-0.044 0.12-0.084 0.239-0.123 0.362-0.006 0.020-0.008 0.039-0.017 0.057-0.031 0.103-0.060 0.208-0.087 0.312-0.009 0.041-0.018 0.085-0.027 0.127-0.021 0.084-0.037 0.169-0.054 0.253-0.009 0.048-0.016 0.096-0.026 0.145-0.015 0.081-0.026 0.164-0.039 0.246-0.006 0.050-0.011 0.098-0.017 0.146-0.009 0.089-0.016 0.179-0.024 0.269-0.004 0.043-0.008 0.084-0.011 0.125-0.006 0.133-0.011 0.267-0.011 0.399v4.742c0 0.102 0.004 0.203 0.006 0.304-0.002 0.050-0.006 0.101-0.006 0.15v6.449c0 1.063 0.862 1.924 1.925 1.924h10.208c1.063 0 1.928-0.861 1.928-1.925v-6.449c0-0.049-0.008-0.1-0.009-0.15 0.002-0.101 0.009-0.202 0.009-0.304z"></path>
<path fill="#ef6391" style="fill: var(--color70, #ef6391)" d="M16.745 10.861c-0.070 0.008-0.137 0.009-0.204 0.014-0.416 0.122-0.852 0.19-1.305 0.19-0.299 0-0.595-0.030-0.879-0.087v3.475c0 0.102-0.004 0.203-0.008 0.304 0.004 0.050 0.008 0.101 0.008 0.15v6.449c0 1.063-0.864 1.925-1.925 1.925h2.386c1.063 0 1.928-0.861 1.928-1.925v-6.449c0-0.049-0.008-0.1-0.009-0.15 0.002-0.101 0.009-0.202 0.009-0.304z"></path>
<path fill="#f7bace" style="fill: var(--color71, #f7bace)" d="M5.389 5.172c-0.906 0.865-1.283 1.939-0.842 2.402s1.533 0.14 2.439-0.722c0.907-0.862 1.284-1.936 0.842-2.4-0.44-0.463-1.533-0.139-2.439 0.72z"></path>
</symbol>
<symbol id="icon-ice-cream-10" viewBox="0 0 15 32">
<path fill="#e8c274" style="fill: var(--color72, #e8c274)" d="M7.663 31.583h-0.433c-0.62 0-1.123-0.502-1.123-1.123v-9.703h2.679v9.703c0 0.62-0.503 1.123-1.123 1.123z"></path>
<path fill="#d7b56e" style="fill: var(--color73, #d7b56e)" d="M6.106 23.107h2.679v1.503h-2.679v-1.503z"></path>
<path fill="#65dbc7" style="fill: var(--color74, #65dbc7)" d="M12.822 23.107h-10.837c-1.035 0-1.866-0.854-1.837-1.889l0.511-19.237c0.027-0.995 0.842-1.788 1.837-1.788h9.814c0.995 0 1.81 0.793 1.837 1.788l0.511 19.237c0.028 1.035-0.803 1.889-1.837 1.889z"></path>
<path fill="#ececec" style="fill: var(--color75, #ececec)" d="M1.98 23.107v0zM1.975 23.107v0zM1.969 23.107v0zM1.964 23.107v0zM14.148 1.975c0 0.002 0.001 0.004 0.001 0.006l0.511 19.237c0.001 0.019 0.001 0.037 0.001 0.054 0-0.018 0-0.036-0.001-0.054l-0.511-19.237c0-0.002-0.001-0.003-0.001-0.006zM14.148 1.97v0zM14.148 1.964v0zM14.147 1.958c0 0.002 0.001 0.003 0.001 0.005 0-0.002-0.001-0.003-0.001-0.005zM14.147 1.952v0zM14.147 1.947c0.001 0.001 0.001 0.002 0.001 0.003 0-0.001 0-0.002-0.001-0.003zM14.147 1.942v0zM14.147 1.937v0z"></path>
<path fill="#61ccb9" style="fill: var(--color76, #61ccb9)" d="M12.839 0.279c0.046 0.153 0.080 0.31 0.084 0.477l0.511 19.237c0.029 1.035-0.802 1.889-1.837 1.889h-10.837c-0.184 0-0.359-0.035-0.527-0.086 0.224 0.744 0.901 1.296 1.718 1.311 0.004 0 0.008 0.001 0.013 0.001h10.858c1.017 0 1.836-0.825 1.838-1.835 0-0.018 0-0.036-0.001-0.054l-0.511-19.237c0-0.002-0.001-0.003-0.001-0.006v-0.012c0-0.002-0.001-0.003-0.001-0.005v-0.008c0-0.001 0-0.002-0.001-0.003v-0.010c-0.040-0.791-0.582-1.439-1.308-1.658z"></path>
<path fill="#61ccb9" style="fill: var(--color76, #61ccb9)" d="M5.652 14.019h-0.152c-0.458 0-0.829 0.372-0.829 0.83v5.281c0 0.458 0.371 0.829 0.829 0.829h0.152c0.458 0 0.829-0.371 0.829-0.829v-5.281c0-0.458-0.371-0.83-0.829-0.83z"></path>
<path fill="#61ccb9" style="fill: var(--color76, #61ccb9)" d="M9.391 14.019h-0.151c-0.458 0-0.83 0.372-0.83 0.83v5.281c0 0.458 0.372 0.829 0.83 0.829h0.151c0.458 0 0.83-0.371 0.83-0.829v-5.281c0-0.458-0.372-0.83-0.83-0.83z"></path>
<path fill="#41443e" style="fill: var(--color77, #41443e)" d="M4.671 7.866c0 0.551-0.446 0.232-0.997 0.232s-0.997 0.319-0.997-0.232c0-0.551 0.446-0.997 0.997-0.997s0.997 0.446 0.997 0.997z"></path>
<path fill="#82ccc0" style="fill: var(--color78, #82ccc0)" d="M3.674 8.67c-0.535 0-0.969 0.273-0.969 0.611s0.434 0.611 0.969 0.611 0.969-0.274 0.969-0.611c0-0.338-0.434-0.611-0.969-0.611z"></path>
<path fill="#41443e" style="fill: var(--color77, #41443e)" d="M10.137 7.866c0 0.551 0.446 0.232 0.997 0.232s0.997 0.319 0.997-0.232c0-0.551-0.446-0.997-0.997-0.997s-0.997 0.446-0.997 0.997z"></path>
<path fill="#82ccc0" style="fill: var(--color78, #82ccc0)" d="M11.134 8.67c-0.536 0-0.969 0.273-0.969 0.611s0.433 0.611 0.969 0.611c0.535 0 0.969-0.274 0.969-0.611s-0.434-0.611-0.969-0.611z"></path>
<path fill="#61ccb9" style="fill: var(--color76, #61ccb9)" d="M7.404 9.173c-0.747 0-1.352 0.148-1.352 0.33s0.605 3.142 1.352 3.142c0.747 0 1.352-2.96 1.352-3.142s-0.605-0.33-1.352-0.33z"></path>
<path fill="#f492a6" style="fill: var(--color79, #f492a6)" d="M8.625 9.614c0 0.145-0.547 2.509-1.221 2.509s-1.22-2.364-1.22-2.509c0-0.145 0.546-0.263 1.22-0.263s1.221 0.118 1.221 0.263z"></path>
<path fill="#f8c9d3" style="fill: var(--color80, #f8c9d3)" d="M7.404 10.627c-0.294 0-0.551 0.285-0.696 0.709 0.198 0.437 0.437 0.787 0.696 0.787s0.499-0.349 0.696-0.787c-0.145-0.424-0.401-0.709-0.696-0.709z"></path>
<path fill="#81e1cf" style="fill: var(--color81, #81e1cf)" d="M7.404 0.953c-2.425 0-4.391 0.094-4.391 0.211s1.966 0.211 4.391 0.211c2.425 0 4.391-0.094 4.391-0.211s-1.966-0.211-4.391-0.211z"></path>
</symbol>
</defs>
</svg>
