<svg aria-hidden="true" style="position: absolute; width: 0; height: 0; overflow: hidden;" version="1.1" xmlns="http://www.w3.org/2000/svg" xmlns:xlink="http://www.w3.org/1999/xlink">
<defs>
<symbol id="icon-email-black" viewBox="0 0 30 32">
<path d="M25.263 5.895h-20.211c-1.389 0-2.514 1.137-2.514 2.526l-0.013 15.158c0 1.389 1.137 2.526 2.526 2.526h20.211c1.389 0 2.526-1.137 2.526-2.526v-15.158c0-1.389-1.137-2.526-2.526-2.526zM24.758 11.263l-8.931 5.583c-0.404 0.253-0.935 0.253-1.339 0l-8.931-5.583c-0.316-0.202-0.505-0.543-0.505-0.909 0-0.846 0.922-1.352 1.642-0.909l8.463 5.293 8.463-5.293c0.72-0.442 1.642 0.063 1.642 0.909 0 0.366-0.189 0.707-0.505 0.909z"></path>
</symbol>
<symbol id="icon-phone-black" viewBox="0 0 30 32">
<path d="M23.572 19.575l-3.096-0.354c-0.744-0.085-1.475 0.171-1.999 0.695l-2.243 2.243c-3.449-1.755-6.277-4.571-8.032-8.032l2.255-2.255c0.524-0.524 0.78-1.255 0.695-1.999l-0.353-3.071c-0.146-1.231-1.182-2.157-2.425-2.157h-2.109c-1.377 0-2.523 1.146-2.438 2.523 0.646 10.409 8.971 18.721 19.367 19.367 1.377 0.085 2.523-1.060 2.523-2.438v-2.108c0.012-1.231-0.914-2.267-2.145-2.413z"></path>
</symbol>
<symbol id="icon-person-black" viewBox="0 0 30 32">
<path d="M15.158 16c2.792 0 5.053-2.261 5.053-5.053s-2.261-5.053-5.053-5.053c-2.792 0-5.053 2.261-5.053 5.053s2.261 5.053 5.053 5.053zM15.158 18.526c-3.373 0-10.105 1.693-10.105 5.053v1.263c0 0.695 0.568 1.263 1.263 1.263h17.684c0.695 0 1.263-0.568 1.263-1.263v-1.263c0-3.36-6.733-5.053-10.105-5.053z"></path>
</symbol>
</defs>
</svg>
