<svg aria-hidden="true"
     style="position: absolute; width: 0; height: 0; overflow: hidden;"
     version="1.1"
     xmlns="http://www.w3.org/2000/svg"
     xmlns:xlink="http://www.w3.org/1999/xlink">
   <defs>
      <symbol id="icon-telegram"
              viewBox="0 0 32 32">
         <path fill="#fff"
               style="fill: var(--color1, #fff)"
               d="M12.965 19.8l-0.509 6.672c0.726 0 1.042-0.293 1.419-0.642l3.408-3.040 7.064 4.827c1.296 0.672 2.208 0.318 2.557-1.112l4.637-20.277h0.002c0.411-1.789-0.693-2.486-1.955-2.048l-27.251 9.738c-1.859 0.672-1.832 1.642-0.317 2.080l6.968 2.022 16.184-9.451c0.762-0.47 1.453-0.211 0.883 0.261l-13.090 10.97z">
         </path>
      </symbol>
      <symbol id="icon-more-sign"
              viewBox="0 0 32 32">
         <path fill="none"
               stroke="#d41443"
               style="stroke: var(--color2, #d41443)"
               stroke-linejoin="round"
               stroke-linecap="round"
               stroke-miterlimit="4"
               stroke-width="6.4"
               d="M6.742 3.2l16.826 12.8-16.826 12.8"></path>
      </symbol>
      <!-- svg for franchise -->
      <symbol id="icon-more-sign-white"
              viewBox="0 0 32 32">
         <path fill="none"
               stroke="#fff"
               style="stroke: var(--color2, #fff)"
               stroke-linejoin="round"
               stroke-linecap="round"
               stroke-miterlimit="4"
               stroke-width="6.4"
               d="M6.742 3.2l16.826 12.8-16.826 12.8"></path>
      </symbol>
      <symbol id="icon-menu"
              viewBox="0 0 32 32">
         <path fill="none"
               stroke="#d41443"
               style="stroke: var(--color2, #d41443)"
               stroke-linejoin="miter"
               stroke-linecap="butt"
               stroke-miterlimit="4"
               stroke-width="1.6"
               d="M0 6.4h32M0 16h32M0 25.6h32"></path>
      </symbol>
      <symbol id="icon-github"
              viewBox="0 0 32 32">
         <path fill="#fff"
               style="fill: var(--color1, #fff)"
               d="M16 0.941c-8.272 0-15.059 6.789-15.059 15.059 0 7.059 4.954 13.47 11.53 15.059v-4.982c-0.651 0.144-1.251 0.147-1.915-0.048-0.89-0.264-1.613-0.856-2.149-1.76-0.342-0.576-0.949-1.203-1.581-1.157l-0.155-1.758c1.368-0.117 2.55 0.834 3.253 2.014 0.312 0.525 0.672 0.832 1.133 0.968 0.445 0.131 0.923 0.069 1.482-0.128 0.139-1.117 0.651-1.536 1.037-2.123-3.922-0.586-5.485-2.667-6.106-4.309-0.822-2.181-0.381-4.906 1.072-6.627 0.029-0.032 0.080-0.122 0.061-0.182-0.667-2.014 0.144-3.68 0.176-3.856 0.768 0.227 0.893-0.229 3.341 1.258l0.422 0.254c0.176 0.106 0.122 0.045 0.299 0.032 0.943-0.266 2.029-0.428 3.15-0.445l0.010-0c1.147 0.018 2.247 0.183 3.294 0.478l-0.090-0.022 0.138 0.014c-0.013-0.002 0.037-0.010 0.12-0.059 3.056-1.851 2.947-1.246 3.766-1.512 0.030 0.176 0.832 1.869 0.171 3.856-0.088 0.275 2.651 2.784 1.133 6.811-0.621 1.643-2.184 3.723-6.106 4.309 0.502 0.768 1.107 1.174 1.104 2.755v6.219c6.576-1.589 11.53-8 11.53-15.059 0-8.272-6.787-15.059-15.059-15.059z">
         </path>
      </symbol>
      <symbol id="icon-facebook"
              viewBox="0 0 16 32">
         <path
               d="M14.266 15.97h-4.176v15.39h-6.328v-15.392h-3.008v-5.408h3.008v-3.498c0-2.504 1.184-6.422 6.384-6.422l4.688 0.019v5.25h-3.402c-0.557 0-1.342 0.282-1.342 1.475v3.184h4.73l-0.554 5.4z">
         </path>
      </symbol>
      <symbol id="icon-close"
              viewBox="0 0 32 32">
         <path stroke-linejoin="miter"
               stroke-linecap="butt"
               stroke-miterlimit="4"
               stroke-width="2"
               d="M2.52 2l26.96 28M2 29.48l28-26.96"></path>
      </symbol>
      <symbol id="icon-arrow-right"
              viewBox="0 0 32 32">
         <path
               d="M19.414 27.414l10-10c0.781-0.781 0.781-2.047 0-2.828l-10-10c-0.781-0.781-2.047-0.781-2.828 0s-0.781 2.047 0 2.828l6.586 6.586h-19.172c-1.105 0-2 0.895-2 2s0.895 2 2 2h19.172l-6.586 6.586c-0.39 0.39-0.586 0.902-0.586 1.414s0.195 1.024 0.586 1.414c0.781 0.781 2.047 0.781 2.828 0z">
         </path>
      </symbol>
      <symbol id="icon-arrow-up" viewBox="0 0 32 32">
<path d="M27.414 12.586l-10-10c-0.781-0.781-2.047-0.781-2.828 0l-10 10c-0.781 0.781-0.781 2.047 0 2.828s2.047 0.781 2.828 0l6.586-6.586v19.172c0 1.105 0.895 2 2 2s2-0.895 2-2v-19.172l6.586 6.586c0.39 0.39 0.902 0.586 1.414 0.586s1.024-0.195 1.414-0.586c0.781-0.781 0.781-2.047 0-2.828z"></path>
</symbol>
   </defs>
</svg>